<svg width="110" height="60" viewBox="0 0 110 60" fill="none" xmlns="http://www.w3.org/2000/svg">
<path d="M10.3677 50.2869C5.48273 50.2869 3.43472 47.173 3.03864 45.4921L3 38.9424L3.42828 38.5334C4.13349 37.8636 5.12851 36.5466 5.12851 35.7061L5.3346 31.7486C5.399 30.4927 5.99473 29.3914 7.01229 28.6476L17.9994 20.6262L16.5729 18.3978L18.2602 17.8536C22.4013 16.5108 25.0901 15.8797 31.8234 15.8797L53.5239 15.8765C56.831 16.1631 59.6261 16.6686 61.9543 17.3867C66.704 18.8487 77.3819 25.2567 79.1498 26.3291C80.5538 26.5512 87.1196 27.6332 94.2748 29.459C102.969 31.6809 105.925 35.1909 106.273 36.7398L107.036 49.2339L105.89 49.498C103.845 49.9714 102.171 50.2837 97.7042 50.2837H92.1012V47.5434H97.7042C101.034 47.5434 102.644 47.3727 104.128 47.0797L104.087 46.5033L103.571 37.1133C103.391 36.7462 101.04 34.0155 93.5985 32.1157C85.6931 30.0934 78.538 29.005 78.4671 28.9953L77.9583 28.8086C77.8392 28.7345 65.8989 21.4666 61.1492 20.0015C59.0046 19.3413 56.3995 18.8744 53.4016 18.6071L31.8234 18.6168C26.4104 18.6168 23.8665 19.0225 20.8009 19.9274L21.6929 21.3185L8.6288 30.8566C8.27458 31.1174 8.09104 31.4555 8.06849 31.8902L7.86563 35.777C7.86563 37.5448 6.48097 39.2837 5.74034 40.0887V44.9737C5.94642 45.5726 6.94789 47.5884 10.651 47.5466L14.2705 47.5434V50.2837H10.6865C10.5802 50.2869 10.4739 50.2869 10.3677 50.2869ZM79.0886 50.2837H27.2863V47.5466H79.0886V50.2837Z" fill="#94989D"/>
<path fill-rule="evenodd" clip-rule="evenodd" d="M6.71909 31.6195L6.70299 31.8191L6.52588 35.1584H10.3031C10.3031 35.1584 12.7697 32.4406 12.6667 30.779C12.6667 30.779 9.98108 30.7436 6.71909 31.6195Z" fill="#94989D"/>
<path fill-rule="evenodd" clip-rule="evenodd" d="M20.2407 27.9649C24.0856 23.5501 27.5182 19.9886 32.6189 19.9886C38.3057 19.9886 47.7181 19.9886 53.4017 19.9854C59.2269 20.5102 63.5709 22.4874 67.9953 25.07L67.976 25.0893L67.9503 25.115C67.0164 26.0135 66.5109 27.1502 66.4658 28.4415C66.4497 28.8633 66.5463 29.2658 66.7459 29.62C55.527 29.6683 28.0689 30.0612 20.2407 27.9649Z" fill="#94989D"/>
<path fill-rule="evenodd" clip-rule="evenodd" d="M20.7784 35.2646C23.6797 35.2646 26.317 36.4529 28.2265 38.3624H28.2233C30.1361 40.2752 31.3243 42.9125 31.3243 45.8106V48.9148V50.2834H29.9525H27.1092C27.8208 49.1403 28.233 47.791 28.233 46.3484C28.233 42.2266 24.8937 38.8905 20.7784 38.8905C16.6598 38.8905 13.3205 42.2266 13.3205 46.3484C13.3205 47.7942 13.7359 49.1435 14.4476 50.2834H11.601H10.2324V48.9148V45.8106C10.2324 42.9093 11.4174 40.272 13.327 38.3624C15.2365 36.4529 17.877 35.2646 20.7784 35.2646ZM85.5965 35.2646C88.4978 35.2646 91.1351 36.4529 93.0447 38.3624C94.9542 40.2752 96.1424 42.9125 96.1424 45.8106V48.9148V50.2834H94.7739H91.9273C92.6421 49.1403 93.0511 47.791 93.0511 46.3484C93.0511 42.2266 89.715 38.8905 85.5965 38.8905C81.4811 38.8905 78.1419 42.2266 78.1419 46.3484C78.1419 47.7942 78.554 49.1435 79.2657 50.2834H76.4191H75.0505V48.9148V45.8106C75.0505 42.9093 76.2388 40.272 78.1483 38.3624C80.0578 36.4529 82.6951 35.2646 85.5965 35.2646Z" fill="#94989D"/>
<rect x="41.0747" y="32.7344" width="3.97043" height="1.82582" fill="#94989D"/>
<path fill-rule="evenodd" clip-rule="evenodd" d="M68.607 25.7462L68.5812 25.7688C67.818 26.5158 67.4123 27.4239 67.3769 28.4769C67.3608 28.8537 67.4863 29.1821 67.7504 29.4526C68.0112 29.7231 68.3332 29.8616 68.7132 29.8616H71.7369C72.236 29.8616 72.6611 29.6104 72.9026 29.1757C73.1473 28.7442 73.1377 28.2515 72.8801 27.8264C72.3262 26.9183 71.4213 25.9426 69.9787 25.4403C69.4893 25.2696 68.9773 25.3823 68.607 25.7462Z" fill="#94989D"/>
<path d="M71.0866 31.2332C70.8064 31.2332 70.5295 31.1012 70.3492 30.8564L68.6554 28.5347C68.3559 28.129 68.4461 27.5558 68.855 27.2595C69.2608 26.9665 69.8307 27.0502 70.1302 27.4592L71.824 29.7809C72.1203 30.1899 72.0301 30.7598 71.6244 31.0561C71.4633 31.1752 71.2734 31.2332 71.0866 31.2332Z" fill="#94989D"/>
<path fill-rule="evenodd" clip-rule="evenodd" d="M20.7644 19.8809L10.6113 27.7251H16.7521L21.9011 21.1464L20.7644 19.8809Z" fill="#94989D"/>
<path fill-rule="evenodd" clip-rule="evenodd" d="M96.5225 34.8237L99.1372 39.5155C99.9938 39.026 101.256 38.7072 102.229 38.7072H102.238H102.251H102.261H102.27H102.283H102.293C103.156 38.7169 104.019 38.7137 104.879 38.7104L104.737 37.065C104.228 36.2342 103.555 35.4903 102.76 34.8237H96.5225Z" fill="#94989D"/>
<rect x="102.367" y="43.3804" width="3.08489" height="1.82582" fill="#94989D"/>
<path fill-rule="evenodd" clip-rule="evenodd" d="M101.884 42.7871H100.525C99.9875 42.7871 99.5527 43.225 99.5527 43.7596V44.819C99.5527 45.3568 99.9875 45.7947 100.525 45.7947H101.884C102.422 45.7947 102.857 45.3568 102.857 44.819V43.7596C102.857 43.225 102.422 42.7871 101.884 42.7871Z" fill="#94989D"/>
<path fill-rule="evenodd" clip-rule="evenodd" d="M85.5963 40.1307C83.8799 40.1307 82.3278 40.8294 81.204 41.9533C80.0802 43.0771 79.3814 44.6292 79.3814 46.3456C79.3814 48.0619 80.0802 49.614 81.204 50.7378C82.3278 51.8617 83.8799 52.5572 85.5963 52.5572C87.3094 52.5572 88.8647 51.8617 89.9885 50.7378C91.1124 49.614 91.8079 48.0619 91.8079 46.3456C91.8079 44.6292 91.1124 43.0771 89.9885 41.9533C88.8647 40.8294 87.3094 40.1307 85.5963 40.1307ZM79.2655 40.0148C80.8852 38.395 83.1232 37.3936 85.5963 37.3936C88.0661 37.3936 90.3041 38.395 91.9238 40.0148C93.5436 41.6345 94.545 43.8725 94.545 46.3456C94.545 48.8186 93.5436 51.0534 91.9238 52.6731C90.3041 54.2929 88.0661 55.2943 85.5963 55.2943C83.1232 55.2943 80.8852 54.2929 79.2655 52.6731C77.6458 51.0534 76.6443 48.8186 76.6443 46.3456C76.6443 43.8725 77.6458 41.6345 79.2655 40.0148ZM20.7782 40.1307C19.0618 40.1307 17.5097 40.8294 16.3859 41.9533C15.2621 43.0771 14.5633 44.6292 14.5633 46.3456C14.5633 48.0619 15.2621 49.614 16.3859 50.7378C17.5097 51.8617 19.0618 52.5572 20.7782 52.5572C22.4913 52.5572 24.0466 51.8617 25.1704 50.7378C26.2942 49.614 26.9898 48.0619 26.9898 46.3456C26.9898 44.6292 26.2942 43.0771 25.1704 41.9533C24.0466 40.8294 22.4913 40.1307 20.7782 40.1307ZM14.4474 40.0148C16.0671 38.395 18.3051 37.3936 20.7782 37.3936C23.248 37.3936 25.486 38.395 27.1057 40.0148C28.7254 41.6345 29.7269 43.8725 29.7269 46.3456C29.7269 48.8186 28.7254 51.0534 27.1057 52.6731C25.486 54.2929 23.248 55.2943 20.7782 55.2943C18.3051 55.2943 16.0671 54.2929 14.4474 52.6731C12.8276 51.0534 11.8262 48.8186 11.8262 46.3456C11.8262 43.8725 12.8276 41.6345 14.4474 40.0148Z" fill="#94989D"/>
<path fill-rule="evenodd" clip-rule="evenodd" d="M20.7781 44.1138C19.548 44.1138 18.5498 45.112 18.5498 46.3453C18.5498 47.5754 19.548 48.5737 20.7781 48.5737C20.9842 48.5737 21.1839 48.5447 21.3706 48.4964C22.3141 48.2356 23.0097 47.3693 23.0097 46.3453C23.0097 45.112 22.0115 44.1138 20.7781 44.1138Z" fill="#94989D"/>
<path fill-rule="evenodd" clip-rule="evenodd" d="M85.5963 44.1138C84.3662 44.1138 83.3647 45.112 83.3647 46.3453C83.3647 47.5754 84.3662 48.5737 85.5963 48.5737C86.8296 48.5737 87.8279 47.5754 87.8279 46.3453C87.8279 45.112 86.8296 44.1138 85.5963 44.1138Z" fill="#94989D"/>
</svg>
