<svg width="130" height="60" viewBox="0 0 130 60" fill="none" xmlns="http://www.w3.org/2000/svg">
<path fill-rule="evenodd" clip-rule="evenodd" d="M36.5592 8.65947L64.1042 8.65625C70.9212 9.29062 77.6706 13.0904 83.7857 16.9964C83.6215 17.0995 83.4637 17.2186 83.322 17.3571L83.2833 17.3957C82.2819 18.3746 81.7248 19.608 81.6765 21.0119C81.67 21.1279 81.6733 21.247 81.6829 21.3629L18.9321 19.5758C25.5431 14.1949 29.5232 8.65947 36.5592 8.65947Z" fill="#94989D"/>
<path d="M12.3919 46.9371C6.1964 46.9371 2.80882 42.9022 2.66392 42.7283L2.35156 42.3483V34.2368L2.54799 33.9083C2.86356 33.3899 3.67826 31.7509 3.67826 30.4499C3.72978 29.2842 3.77808 27.4874 3.82638 25.697L3.92621 22.4092C3.99383 20.2904 11.7447 11.8987 14.3272 9.46101L13.9086 6.64983L15.1677 6.38256C20.5357 5.23618 31.2941 4.55351 38.5942 4.55351L64.2297 4.55029C73.816 5.39075 82.797 11.0711 90.7218 16.0816C92.1161 16.964 93.4911 17.8334 94.8468 18.6642C95.4876 18.7318 96.2926 18.8059 97.2232 18.8928C112.11 20.2743 126.063 22.3513 127.364 28.1185L127.399 46.0064L126.324 46.2415C124.334 46.6794 122.356 46.9306 118.141 46.9306H114.026V44.1935H118.141C121.535 44.1935 123.326 44.0164 124.659 43.7813V28.4212C124.002 25.6519 114.673 23.2626 96.9688 21.6171C95.8675 21.5172 94.9401 21.4303 94.2478 21.353L93.6811 21.1598C92.232 20.2775 90.7572 19.3436 89.2598 18.3969C81.2224 13.3155 72.9144 8.06025 64.1106 7.2842L38.5942 7.29064C31.9768 7.29064 22.4967 7.85738 17 8.81698L17.2769 10.6686L16.5169 11.1451C15.2611 11.9953 7.17855 21.0407 6.63756 22.6797L6.56672 25.7743C6.5152 27.5808 6.46368 29.3969 6.41537 30.5111C6.41537 32.3337 5.51374 34.2046 5.0919 34.9807V41.3179C5.95167 42.1616 8.58897 44.2386 12.7526 44.1935H14.6042V46.9306H12.788C12.656 46.9338 12.524 46.9371 12.3919 46.9371ZM93.9355 46.9306H35.6703V44.1903H93.9355V46.9306Z" fill="#94989D"/>
<path fill-rule="evenodd" clip-rule="evenodd" d="M84.2427 18.3292L84.2169 18.3518C83.4538 19.0988 83.048 20.0069 83.0126 21.0599C82.9965 21.4367 83.1221 21.7651 83.3861 22.0356C83.647 22.3061 83.969 22.4446 84.349 22.4446H87.3727C87.8718 22.4446 88.2969 22.1934 88.5384 21.7619C88.7831 21.3272 88.7734 20.8345 88.5158 20.4094C87.962 19.5046 87.0571 18.5256 85.6177 18.0233C85.125 17.8526 84.6162 17.9653 84.2427 18.3292Z" fill="#94989D"/>
<path d="M86.719 23.8197C86.4389 23.8197 86.162 23.6909 85.9816 23.4429L84.2878 21.1212C83.9916 20.7155 84.0818 20.1423 84.4875 19.846C84.8932 19.553 85.4664 19.6399 85.7627 20.0457L87.4565 22.3674C87.7527 22.7764 87.6625 23.3463 87.2568 23.6426C87.0958 23.7617 86.9058 23.8197 86.719 23.8197Z" fill="#94989D"/>
<path fill-rule="evenodd" clip-rule="evenodd" d="M5.18506 28.5116H6.91105C9.13617 28.5116 12.089 26.8243 12.1792 24.8986V23.1211H5.2237C5.2237 24.9437 5.19472 26.6536 5.18506 28.5116Z" fill="#94989D"/>
<path fill-rule="evenodd" clip-rule="evenodd" d="M116.576 26.9595L119.79 32.7268C120.843 32.1246 122.395 31.7349 123.593 31.7349H123.603H123.619H123.631H123.644H123.657H123.67C124.488 31.7446 125.306 31.7446 126.121 31.7414C126.121 29.4358 126.398 29.1846 124.314 27.6099L116.576 26.9595Z" fill="#94989D"/>
<rect x="59.1191" y="24.521" width="6.31791" height="1.82582" fill="#94989D"/>
<rect x="30.7886" y="23.79" width="6.31791" height="1.82582" fill="#94989D"/>
<path fill-rule="evenodd" clip-rule="evenodd" d="M42.9609 38.061V40.3989H85.8918L42.9609 38.061Z" fill="#94989D"/>
<path fill-rule="evenodd" clip-rule="evenodd" d="M125.477 34.9292H120.647C119.642 35.9339 119.59 37.3443 119.59 38.5519H125.477V34.9292Z" fill="#94989D"/>
<path fill-rule="evenodd" clip-rule="evenodd" d="M121.809 43.0116C121.442 42.1712 121.416 41.2212 121.416 40.3711H125.477V43.0116H121.809Z" fill="#94989D"/>
<path fill-rule="evenodd" clip-rule="evenodd" d="M19.1704 11.5157L6.38965 22.6381L6.60218 20.2069C9.19117 16.7098 14.791 10.6108 15.7892 9.98291L19.1704 11.5157Z" fill="#94989D"/>
<path fill-rule="evenodd" clip-rule="evenodd" d="M17.6504 52.7434C15.8922 51.246 14.5848 49.227 13.9666 46.9342H13.2807H11.9121V45.5624V41.5501C11.9121 37.9114 13.3998 34.6043 15.7988 32.2085C18.1914 29.8127 21.5017 28.3218 25.1404 28.3218C28.776 28.3218 32.083 29.8127 34.482 32.2085H34.4853C36.881 34.6043 38.3688 37.9114 38.3688 41.5501V45.5624V46.9342H37.0002H36.3111C35.696 49.2302 34.3887 51.246 32.6305 52.7434C30.6082 54.4629 27.9902 55.503 25.1404 55.503C22.2906 55.503 19.6726 54.4629 17.6504 52.7434ZM103.979 36.2111C99.7156 36.2111 96.2604 39.6663 96.2604 43.9298C96.2604 48.1933 99.7156 51.6485 103.979 51.6485C108.246 51.6485 111.701 48.1933 111.701 43.9298C111.701 39.6663 108.246 36.2111 103.979 36.2111ZM25.1404 36.2111C20.877 36.2111 17.4218 39.6663 17.4218 43.9298C17.4218 48.1933 20.877 51.6485 25.1404 51.6485C29.4039 51.6485 32.8591 48.1933 32.8591 43.9298C32.8591 39.6663 29.4039 36.2111 25.1404 36.2111ZM103.979 28.3218C107.615 28.3218 110.922 29.8127 113.321 32.2085H113.324C115.72 34.6043 117.207 37.9114 117.207 41.5501V45.5624V46.9342H115.839H115.153C114.535 49.2302 113.227 51.246 111.469 52.7434C109.447 54.4629 106.832 55.503 103.979 55.503C101.129 55.503 98.5145 54.4629 96.4922 52.7466V52.7498C94.7308 51.2524 93.4234 49.2334 92.8084 46.9342H92.1225H90.7507V45.5624V41.5501C90.7507 37.9114 92.2416 34.6043 94.6374 32.2085C97.0332 29.8095 100.34 28.3218 103.979 28.3218ZM103.979 40.9286C105.637 40.9286 106.98 42.2714 106.98 43.9298C106.98 45.5882 105.637 46.931 103.979 46.931C102.324 46.931 100.978 45.5882 100.978 43.9298C100.978 42.2714 102.324 40.9286 103.979 40.9286ZM25.1404 40.9286C23.4821 40.9286 22.1393 42.2714 22.1393 43.9298C22.1393 45.5882 23.4821 46.931 25.1404 46.931C26.7988 46.931 28.1416 45.5882 28.1416 43.9298C28.1416 42.2714 26.7988 40.9286 25.1404 40.9286Z" fill="#94989D"/>
</svg>
