<svg width="130" height="60" viewBox="0 0 130 60" fill="none" xmlns="http://www.w3.org/2000/svg">
<path d="M36.6249 51.8542L36.6217 49.117L43.8445 49.1042C62.6017 49.0784 81.9 49.043 100.219 49.0848L100.213 51.822C81.9 51.7833 62.5985 51.8155 43.8477 51.8445L36.6249 51.8542ZM23.2549 51.6964C17.2912 50.9235 6.68086 47.7549 3.26752 45.2979L2.69434 44.889V37.4923L3.06143 37.0962C3.54445 36.5714 4.93233 34.7649 4.93233 33.4285L6.13988 28.2183L4.78098 23.3881L11.0989 24.1802L21.9347 23.9548C22.978 23.562 24.4077 22.9888 26.0596 22.3287C34.5447 18.925 42.4437 15.8755 45.7862 15.8755H68.3755C68.749 15.8755 69.0935 15.9238 69.4574 16.0301C76.2583 18.0169 82.4764 21.2853 89.6831 25.5746L89.8763 25.5842C109.928 26.3732 121.646 27.9156 125.7 30.3017L126.341 30.6785L126.515 34.8679L128.148 36.2461V36.8805C128.148 42.0617 125.929 44.0711 124.564 45.269C124.612 45.3752 124.66 45.4847 124.702 45.5781C125.034 46.3187 125.378 47.0819 125.359 47.8097L125.333 48.7049L124.502 49.043C121.34 50.3149 117.891 51.1329 113.966 51.5386L113.686 48.8143C116.871 48.4859 119.708 47.8741 122.313 46.9434C122.274 46.8565 122.235 46.7728 122.203 46.6987C121.926 46.0804 121.662 45.4944 121.624 44.9373L121.585 44.319L122.02 43.8811C122.223 43.6782 122.458 43.4721 122.706 43.2532C123.846 42.2549 125.246 41.028 125.394 37.5084L123.829 36.1882L123.672 32.3304C119.453 30.3887 108.057 29.0394 89.7668 28.3181L88.8781 28.2859L88.5818 28.1056C81.4234 23.8357 75.3052 20.593 68.6942 18.6577C68.5783 18.6255 68.4914 18.6126 68.3755 18.6126H45.7862C42.6949 18.6126 32.9185 22.5283 27.0772 24.8694C25.2836 25.5874 23.7444 26.2025 22.6753 26.6018L22.2245 26.6855L10.954 26.9077L8.53244 26.6115L8.96716 28.1539L7.63403 33.7473C7.66301 35.6214 6.16564 37.6598 5.43467 38.5389V43.4431C8.98326 45.5556 18.4247 48.3088 23.6059 48.9786L23.2549 51.6964Z" fill="#94989D"/>
<path fill-rule="evenodd" clip-rule="evenodd" d="M49.9658 20.4385C50.1622 22.7538 50.3587 25.0658 50.5519 27.3811C46.9453 26.56 43.3388 25.7388 39.729 24.9177C44.0601 22.0582 44.8233 20.4385 49.9658 20.4385ZM52.7126 20.4385H68.2755C71.9883 21.5333 75.553 23.0726 79.0147 24.834C78.9503 24.8855 78.8923 24.937 78.8343 24.995L78.7957 25.0336C77.9552 25.8515 77.4271 26.8498 77.25 27.9736C74.6127 27.9801 71.5826 27.9865 68.4591 27.9865H53.3502C53.1377 25.4716 52.9251 22.9534 52.7126 20.4385Z" fill="#94989D"/>
<path fill-rule="evenodd" clip-rule="evenodd" d="M102.119 54.4171C100.844 53.7022 99.7365 52.7072 98.8863 51.5125L97.9944 51.3547C97.4212 51.2484 96.8738 51.139 96.3618 51.0295L95.2766 50.7976V49.6931V46.1187C95.2766 42.7376 96.117 39.6527 98.2971 37.4727L98.2938 37.4694C100.158 35.605 102.944 34.4683 106.927 34.4683C110.907 34.4683 113.693 35.605 115.557 37.4694L115.56 37.4759C117.737 39.6495 118.577 42.7344 118.577 46.1187V48.3471V49.5128L117.421 49.6963C117.009 49.7639 116.626 49.8283 116.275 49.8895L116.269 49.896L115.873 49.9668C115.132 51.5576 113.976 52.9165 112.553 53.9083C110.955 55.016 109.017 55.6697 106.927 55.6697C105.188 55.6697 103.549 55.2157 102.126 54.4171H102.119ZM106.927 38.9088C103.118 38.9088 100.029 41.997 100.029 45.8032C100.029 49.6126 103.118 52.7007 106.927 52.7007C110.736 52.7007 113.825 49.6126 113.825 45.8032C113.825 41.997 110.736 38.9088 106.927 38.9088ZM30.0753 38.9088C26.2691 38.9088 23.1809 41.997 23.1809 45.8032C23.1809 49.6126 26.2691 52.7007 30.0753 52.7007C33.8847 52.7007 36.9728 49.6126 36.9728 45.8032C36.9728 41.997 33.8847 38.9088 30.0753 38.9088ZM21.4453 37.4727L21.4421 37.4694C23.3065 35.605 26.0919 34.4683 30.0753 34.4683C34.0586 34.4683 36.8408 35.605 38.7052 37.4694L38.7117 37.4759C40.8853 39.6495 41.7289 42.7344 41.7289 46.1187V50.482V51.8409L40.3572 51.8442L37.868 51.8474C37.0275 52.9326 35.9617 53.8374 34.7445 54.4943C33.3501 55.2446 31.7594 55.6697 30.0753 55.6697C28.3396 55.6697 26.7006 55.2157 25.274 54.4171C23.9924 53.7022 22.8847 52.7039 22.0378 51.5125L21.149 51.3547C20.5759 51.2517 20.0284 51.1422 19.51 51.0295L18.4248 50.7976V49.6931V46.1187C18.4248 42.7376 19.2685 39.6527 21.4453 37.4727Z" fill="#94989D"/>
<path fill-rule="evenodd" clip-rule="evenodd" d="M30.0784 48.3024C31.4534 48.3024 32.5772 47.1785 32.5772 45.8035C32.5772 44.4253 31.4534 43.3047 30.0784 43.3047C28.7002 43.3047 27.5796 44.4253 27.5796 45.8035C27.5796 47.1785 28.7002 48.3024 30.0784 48.3024Z" fill="#94989D"/>
<rect x="54.0781" y="30.3643" width="6.31791" height="1.8226" fill="#94989D"/>
<path fill-rule="evenodd" clip-rule="evenodd" d="M46.3052 43.8257V46.1635H91.7027L46.3052 43.8257Z" fill="#94989D"/>
<path fill-rule="evenodd" clip-rule="evenodd" d="M106.93 48.3024C108.305 48.3024 109.429 47.1785 109.429 45.8035C109.429 44.4253 108.305 43.3047 106.93 43.3047C105.555 43.3047 104.431 44.4253 104.431 45.8035C104.431 47.1785 105.555 48.3024 106.93 48.3024Z" fill="#94989D"/>
<path fill-rule="evenodd" clip-rule="evenodd" d="M113.348 24.2412H99.002L92.9707 26.2731V26.9236C99.089 27.2585 106.666 27.793 113.348 28.6625V24.2412Z" fill="#94989D"/>
<path fill-rule="evenodd" clip-rule="evenodd" d="M79.752 25.964L79.7262 25.9865C78.963 26.7336 78.5573 27.6417 78.5219 28.6947C78.5058 29.0714 78.6314 29.3999 78.8922 29.6704C79.1562 29.9409 79.4783 30.0793 79.8582 30.0793H82.8819C83.3811 30.0793 83.8061 29.8282 84.0476 29.3934C84.2924 28.9619 84.2795 28.4693 84.0251 28.0442C83.4712 27.1361 82.5664 26.1604 81.1237 25.6581C80.6343 25.4874 80.1223 25.6001 79.752 25.964Z" fill="#94989D"/>
<path d="M82.2283 31.4545C81.9482 31.4545 81.668 31.3257 81.4909 31.0809L79.7971 28.756C79.5009 28.347 79.591 27.7771 79.9968 27.4808C80.4057 27.191 80.9789 27.2715 81.2719 27.6805L82.9657 30.0054C83.262 30.4144 83.1718 30.9843 82.7661 31.2806C82.6051 31.3965 82.4151 31.4545 82.2283 31.4545Z" fill="#94989D"/>
</svg>
