<svg width="128" height="60" viewBox="0 0 128 60" fill="none" xmlns="http://www.w3.org/2000/svg">
<path fill-rule="evenodd" clip-rule="evenodd" d="M37.4238 26.3612C32.6065 26.3612 30.0658 26.1745 27.4253 25.1891C32.0752 21.8305 39.2207 16.4593 45.487 16.4593C50.2271 16.4593 56.0362 16.4561 60.6313 16.4561C67.8155 16.4561 73.9241 19.0483 79.8523 22.3554C78.8863 23.3214 78.355 24.5322 78.3067 25.9072C78.3002 26.0585 78.3067 26.2131 78.326 26.3612H37.4238Z" fill="#94989D"/>
<path d="M16.3674 49.6653C10.2685 49.6653 3.86688 45.5435 3.59317 45.3631L2.97168 44.9606V35.6866L3.16811 35.3582C3.48368 34.8365 4.29838 33.2007 4.29838 31.8965L4.65581 22.2618L17.8326 21.4053L18.3092 21.1766C24.7817 18.1078 36.8282 12.3921 43.6903 12.3921H63.2043C66.7851 12.7012 69.8249 13.2519 72.3624 14.0311C77.521 15.6219 89.1425 22.5935 91.081 23.7689C92.9165 23.9814 102.635 25.1664 110.598 27.2015C120.02 29.607 123.218 33.3874 123.592 35.0458L124.416 48.5479L123.266 48.8119C121.048 49.3271 119.228 49.662 114.366 49.662H109.561V46.9217H114.366C118.095 46.9217 119.85 46.7285 121.505 46.3936L120.887 35.4226C120.713 35.0168 118.082 31.9416 109.919 29.8549C101.328 27.6588 90.5852 26.4673 90.4789 26.4545L89.9121 26.2613C89.7833 26.184 76.7482 18.2495 71.5574 16.6491C69.2034 15.9246 66.3536 15.4126 63.0852 15.126L43.6903 15.1324C37.4432 15.1324 25.7606 20.6743 19.4813 23.6529L18.2705 24.1199L7.29954 24.8347L7.03549 31.948C7.03549 33.7771 6.13385 35.6512 5.71202 36.4305V43.4472C7.41547 44.439 12.3777 46.9829 16.6927 46.9249L20.5407 46.9217V49.662H16.7313C16.609 49.6653 16.4866 49.6653 16.3674 49.6653ZM94.6039 49.662H35.5015V46.9217H94.6039V49.662Z" fill="#94989D"/>
<path fill-rule="evenodd" clip-rule="evenodd" d="M5.76682 30.5895C5.71529 31.9323 5.67021 33.3556 5.66699 34.2025H7.39299C9.6181 34.2025 12.5677 32.5184 12.6611 30.5895V28.812H5.70563V30.5895H5.76682Z" fill="#94989D"/>
<path fill-rule="evenodd" clip-rule="evenodd" d="M113.155 33.8481L115.767 38.5399C116.627 38.0504 117.889 37.7316 118.861 37.7316H118.871H118.884H118.894H118.903H118.916H118.926C120.288 37.7477 121.644 37.7316 123.006 37.7316L122.954 37.5127C122.845 37.0554 121.544 34.8367 120.204 33.8481H113.155Z" fill="#94989D"/>
<rect x="60.915" y="30.041" width="6.31469" height="1.82582" fill="#94989D"/>
<rect x="32.8447" y="30.041" width="6.31469" height="1.82582" fill="#94989D"/>
<path fill-rule="evenodd" clip-rule="evenodd" d="M44.5562 41.4111V43.749H87.4806L44.5562 41.4111Z" fill="#94989D"/>
<rect x="119.914" y="42.4033" width="3.08489" height="1.82582" fill="#94989D"/>
<path fill-rule="evenodd" clip-rule="evenodd" d="M119.428 41.8115H118.072C117.534 41.8115 117.1 42.2495 117.1 42.7872V43.8467C117.1 44.3812 117.534 44.8191 118.072 44.8191H119.428C119.966 44.8191 120.403 44.3812 120.403 43.8467V42.7872C120.403 42.2495 119.966 41.8115 119.428 41.8115Z" fill="#94989D"/>
<path fill-rule="evenodd" clip-rule="evenodd" d="M80.873 23.2247L80.8473 23.2473C80.0841 23.9943 79.6784 24.9024 79.6429 25.9554C79.6268 26.3322 79.7556 26.6606 80.0165 26.9311C80.2773 27.2016 80.6025 27.3401 80.9793 27.3401H84.003C84.5021 27.3401 84.9272 27.0889 85.1687 26.6542C85.4134 26.2227 85.4038 25.73 85.1462 25.3049C84.5923 24.3969 83.6874 23.4212 82.2448 22.9188C81.7554 22.7481 81.2434 22.8609 80.873 23.2247Z" fill="#94989D"/>
<path d="M83.3493 28.7118C83.0691 28.7118 82.7922 28.583 82.6119 28.3351L80.9181 26.0166C80.6186 25.6076 80.7088 25.0377 81.1177 24.7414C81.5267 24.4452 82.0934 24.5321 82.3929 24.9411L84.0867 27.2596C84.383 27.6685 84.296 28.2385 83.8871 28.5347C83.726 28.6539 83.5361 28.7118 83.3493 28.7118Z" fill="#94989D"/>
<path fill-rule="evenodd" clip-rule="evenodd" d="M5.10986 44.6841V48.5386H15.1535V48.2391C10.9705 47.8495 6.79077 45.6566 5.10986 44.6841Z" fill="#94989D"/>
<path fill-rule="evenodd" clip-rule="evenodd" d="M28.0211 33.1621C31.2219 33.1621 34.1329 34.4727 36.2453 36.5819L36.2485 36.5851L36.2517 36.5883C38.3609 38.7008 39.6715 41.615 39.6715 44.8126V48.2936V49.6621H38.303H35.3275C36.0553 48.4127 36.4707 46.9604 36.4707 45.4115C36.4707 40.7423 32.687 36.9587 28.0211 36.9587C23.3551 36.9587 19.5714 40.7423 19.5714 45.4115C19.5714 46.9604 19.9868 48.4127 20.7146 49.6621H17.7392H16.3706V48.2936V44.8126C16.3706 41.615 17.6812 38.7008 19.7904 36.5883L19.7936 36.5851L19.7968 36.5819C21.9092 34.4727 24.8235 33.1621 28.0211 33.1621Z" fill="#94989D"/>
<path fill-rule="evenodd" clip-rule="evenodd" d="M21.0462 38.4334C22.8301 36.6494 25.2968 35.5449 28.021 35.5449C30.742 35.5449 33.2086 36.6527 34.9926 38.4334L34.999 38.4398C36.7798 40.2238 37.8875 42.6904 37.8875 45.4114C37.8875 48.1357 36.783 50.6023 34.999 52.3863H34.9926C33.2086 54.1702 30.742 55.2747 28.021 55.2747C25.2968 55.2747 22.8301 54.1702 21.0462 52.3863C19.2622 50.6023 18.1577 48.1357 18.1577 45.4114C18.1577 42.6904 19.2622 40.2238 21.0462 38.4398V38.4334ZM28.021 38.5139C24.2116 38.5139 21.1235 41.602 21.1235 45.4114C21.1235 49.2209 24.2116 52.309 28.021 52.309C31.8304 52.309 34.9185 49.2209 34.9185 45.4114C34.9185 41.602 31.8304 38.5139 28.021 38.5139Z" fill="#94989D"/>
<path fill-rule="evenodd" clip-rule="evenodd" d="M28.0245 47.9137C29.3963 47.9137 30.5233 46.7898 30.5233 45.4148C30.5233 44.0366 29.3963 42.916 28.0245 42.916C26.6463 42.916 25.5225 44.0366 25.5225 45.4148C25.5225 46.7898 26.6463 47.9137 28.0245 47.9137Z" fill="#94989D"/>
<path fill-rule="evenodd" clip-rule="evenodd" d="M102.081 33.1621C105.282 33.1621 108.193 34.4727 110.305 36.5819L110.309 36.5851L110.312 36.5883C112.421 38.7008 113.732 41.615 113.732 44.8126V48.2936V49.6621H112.363H109.388C110.115 48.4127 110.531 46.9604 110.531 45.4115C110.531 40.7423 106.747 36.9587 102.081 36.9587C97.4151 36.9587 93.6315 40.7423 93.6315 45.4115C93.6315 46.9604 94.0469 48.4127 94.7746 49.6621H91.7992H90.4307V48.2936V44.8126C90.4307 41.615 91.7413 38.7008 93.8504 36.5883L93.8537 36.5851L93.8569 36.5819C95.9693 34.4727 98.8835 33.1621 102.081 33.1621Z" fill="#94989D"/>
<path fill-rule="evenodd" clip-rule="evenodd" d="M95.1062 38.4334C96.8902 36.6494 99.3568 35.5449 102.081 35.5449C104.802 35.5449 107.269 36.6527 109.053 38.4334L109.056 38.4398C110.84 40.2238 111.948 42.6904 111.948 45.4114C111.948 48.1357 110.843 50.6023 109.056 52.3863H109.053C107.269 54.1702 104.802 55.2747 102.081 55.2747C99.3568 55.2747 96.8902 54.1702 95.1062 52.3863C93.3223 50.6023 92.2178 48.1357 92.2178 45.4114C92.2178 42.6904 93.3223 40.2238 95.1062 38.4398V38.4334ZM102.081 38.5139C98.2716 38.5139 95.1835 41.602 95.1835 45.4114C95.1835 49.2209 98.2716 52.309 102.081 52.309C105.89 52.309 108.979 49.2209 108.979 45.4114C108.979 41.602 105.89 38.5139 102.081 38.5139Z" fill="#94989D"/>
<path fill-rule="evenodd" clip-rule="evenodd" d="M102.081 47.9137C103.456 47.9137 104.58 46.7898 104.58 45.4148C104.58 44.0366 103.456 42.916 102.081 42.916C100.706 42.916 99.582 44.0366 99.582 45.4148C99.582 46.7898 100.706 47.9137 102.081 47.9137Z" fill="#94989D"/>
</svg>
