<svg width="76" height="50" viewBox="0 0 76 50" fill="none" xmlns="http://www.w3.org/2000/svg">
<g id="Group 311">
<path id="Path 1581" d="M22.275 40.9343H9.69531V45.6517C9.69531 47.3893 11.1027 48.7966 12.8402 48.7966H19.1301C20.8677 48.7966 22.275 47.3893 22.275 45.6517V40.9343Z" stroke="#9D9D9D" stroke-width="2" stroke-linecap="round" stroke-linejoin="round"/>
<path id="Path 1582" d="M12.8403 15.775L11.8638 11.8674C11.5131 10.4679 10.2551 9.48511 8.81161 9.48511H4.97794C3.24036 9.48511 1.83301 10.8925 1.83301 12.63V13.1961C1.83301 14.6963 2.89128 15.9872 4.36153 16.2813L9.69533 17.3474" stroke="#9D9D9D" stroke-width="2" stroke-linecap="round" stroke-linejoin="round"/>
<path id="Path 1583" d="M33.2827 15.7747H15.9856C10.7744 15.7747 6.55078 19.9983 6.55078 25.2094V37.7892C6.55078 39.5267 7.95814 40.9341 9.69571 40.9341H34.8551" stroke="#9D9D9D" stroke-width="2" stroke-linecap="round" stroke-linejoin="round"/>
<path id="Path 1584" d="M30.1375 26.782H26.9926C25.255 26.782 23.8477 28.1893 23.8477 29.9269V31.4994C23.8477 33.2369 25.255 34.6443 26.9926 34.6443H31.71" stroke="#9D9D9D" stroke-width="2" stroke-linecap="round" stroke-linejoin="round"/>
<line id="Line 8" x1="12.2681" y1="33.6443" x2="14.9855" y2="33.6443" stroke="#9D9D9D" stroke-width="2" stroke-linecap="round" stroke-linejoin="round"/>
<line id="Line 9" x1="12.2681" y1="24.2097" x2="19.7029" y2="24.2097" stroke="#9D9D9D" stroke-width="2" stroke-linecap="round" stroke-linejoin="round"/>
<circle id="Ellipse 472" cx="52.1522" cy="26.7823" r="22.0145" stroke="#9D9D9D" stroke-width="2" stroke-linecap="round" stroke-linejoin="round"/>
<path id="Path 1585" d="M55.1948 5.00203C54.1145 2.94053 51.9869 1.6228 49.6377 1.6228H26.3636C23.8776 1.6228 21.6258 3.08677 20.6163 5.35741L15.9854 15.775" stroke="#9D9D9D" stroke-width="2" stroke-linecap="round" stroke-linejoin="round"/>
<path id="Path 1586" d="M42.0884 20.807L46.4913 16.4041V38.4186" stroke="#9D9D9D" stroke-width="2" stroke-linecap="round" stroke-linejoin="round"/>
<path id="Path 1587" d="M61.9015 16.4041H53.0957V25.2099H55.2972C58.9453 25.2099 61.9015 28.1661 61.9015 31.8142C61.9015 35.4623 58.9453 38.4186 55.2972 38.4186H53.0957" stroke="#9D9D9D" stroke-width="2" stroke-linecap="round" stroke-linejoin="round"/>
</g>
</svg>
