<svg width="80" height="80" viewBox="0 0 80 80" fill="none" xmlns="http://www.w3.org/2000/svg">
<path d="M80 40C80 62.0914 62.0914 80 40 80C17.9086 80 0 62.0914 0 40C0 17.9086 17.9086 0 40 0C62.0914 0 80 17.9086 80 40Z" fill="#4A84D9"/>
<path fill-rule="evenodd" clip-rule="evenodd" d="M41.1992 34.787C41.1992 34.352 40.8008 34 40.4004 34C39.9004 34 39.5996 34.352 39.5996 34.787V39.509H34.8008C34.3008 39.509 34 39.861 34 40.296C34 40.73 34.3008 41.082 34.8008 41.082H39.5996V45.916C39.5996 46.351 39.9004 46.703 40.4004 46.703C40.8008 46.703 41.1992 46.351 41.1992 45.916V41.082H45.9004C46.3008 41.082 46.6992 40.73 46.6992 40.296C46.6992 39.861 46.3008 39.509 45.9004 39.509H41.1992V34.787Z" fill="white"/>
</svg>
