<svg width="80" height="80" viewBox="0 0 80 80" fill="none" xmlns="http://www.w3.org/2000/svg">
<path d="M80 40C80 62.0914 62.0914 80 40 80C17.9086 80 0 62.0914 0 40C0 17.9086 17.9086 0 40 0C62.0914 0 80 17.9086 80 40Z" fill="#4A84D9"/>
<path fill-rule="evenodd" clip-rule="evenodd" d="M38.5996 39H33.8008C33.3008 39 33 39.352 33 39.787C33 40.221 33.3008 40.573 33.8008 40.573H38.5996C40.2598 40.573 40.1934 40.5485 40.1992 40.573H44.9004C45.3008 40.573 45.6992 40.221 45.6992 39.787C45.6992 39.352 45.3008 39 44.9004 39H40.1992" fill="white"/>
</svg>
