<svg width="80" height="80" viewBox="0 0 80 80" fill="none" xmlns="http://www.w3.org/2000/svg">
<path d="M79.5 40C79.5 61.8153 61.8153 79.5 40 79.5C18.1847 79.5 0.5 61.8153 0.5 40C0.5 18.1847 18.1847 0.5 40 0.5C61.8153 0.5 79.5 18.1847 79.5 40Z" stroke="#030303"/>
<path fill-rule="evenodd" clip-rule="evenodd" d="M38.5996 39H33.8008C33.3008 39 33 39.352 33 39.787C33 40.221 33.3008 40.573 33.8008 40.573H38.5996C40.2598 40.573 40.1934 40.5485 40.1992 40.573H44.9004C45.3008 40.573 45.6992 40.221 45.6992 39.787C45.6992 39.352 45.3008 39 44.9004 39H40.1992" fill="black"/>
</svg>
