<svg width="146" height="70" viewBox="0 0 146 70" fill="none" xmlns="http://www.w3.org/2000/svg">
<path d="M46.6062 47.4327V38.3309H0C0.0772344 38.1538 0.122478 38.038 0.176634 37.9267C4.67177 28.7038 9.16736 19.4814 13.6632 10.2589C13.6799 10.2242 13.7009 10.1909 13.7125 10.1547C13.7943 9.89951 13.9577 9.8193 14.2322 9.82159C15.9528 9.8353 17.6739 9.82844 19.3947 9.82844H46.0171H46.5934V1.13135H98.7158V9.82159H145.436C140.586 19.3676 135.773 28.84 130.948 38.3357H98.7355V47.382C98.685 47.4503 98.6788 47.4619 98.6697 47.4699C98.6601 47.4779 98.6477 47.4859 98.6359 47.4878C98.573 47.4973 98.5102 47.5122 98.4471 47.5122C81.251 47.5129 64.0552 47.5124 46.8591 47.5113C46.8084 47.5113 46.757 47.5035 46.7074 47.493C46.6843 47.4882 46.6644 47.4686 46.6062 47.4327ZM13.8855 29.5335H54.8243V38.2962H91.0731V29.5269H91.5374C93.3611 29.5269 95.1848 29.5271 97.0085 29.5271C106.166 29.5269 115.323 29.5264 124.48 29.5303C124.738 29.5303 124.917 29.5054 125.063 29.2298C126.939 25.68 128.833 22.1391 130.721 18.5955C130.779 18.4865 130.824 18.3706 130.898 18.2081H91.0662V16.7953V15.409V14.0224V12.6358C91.0662 12.1738 91.0685 11.7115 91.0658 11.2495C91.063 10.7936 91.0781 10.3369 91.0555 9.88923C89.8844 9.79805 55.1342 9.8433 54.8225 9.93835V11.5843V13.2402V14.8964C54.8225 15.4483 54.8234 16.0003 54.8223 16.5524C54.8211 17.099 54.828 17.6458 54.817 18.2184H19.3506C17.5363 21.975 15.7302 25.7143 13.8855 29.5335Z" fill="#161615"/>
<path d="M65.9772 55.9165C65.934 56.0733 65.9155 56.1914 65.8703 56.2984C64.2879 60.0239 62.7069 63.7503 61.1117 67.4704C60.9709 67.7985 60.7653 68.1116 60.5347 68.3853C60.2712 68.6982 59.8995 68.8503 59.4781 68.8501C57.9777 68.8492 56.4767 68.8764 54.9773 68.8378C54.1951 68.8177 53.6773 68.3083 53.3725 67.6306C52.6554 66.0356 51.9685 64.4272 51.2773 62.8208C50.6729 61.4166 50.0432 60.0214 49.5023 58.593C49.3279 58.1326 49.0903 58.0811 48.6934 58.0821C45.6264 58.0901 42.5594 58.0862 39.4922 58.086C39.4703 58.086 39.4481 58.086 39.4262 58.0869C38.777 58.1111 38.6682 58.2206 38.6639 58.8745C38.66 59.4693 38.6694 60.0643 38.6607 60.6592C38.6575 60.8815 38.7203 60.9562 38.9628 60.9555C41.8965 60.9452 44.8305 60.9489 47.8098 60.9489C47.8173 61.0627 47.8313 61.1879 47.8326 61.3133C47.8379 61.7871 47.8187 62.2619 47.8491 62.7337C47.868 63.028 47.784 63.1105 47.4883 63.1094C44.7078 63.0975 41.9276 63.0998 39.1474 63.0984C38.6552 63.0982 38.6628 63.0996 38.6662 63.5806C38.6719 64.3737 38.6646 65.1671 38.6669 65.9602C38.6682 66.5079 38.7388 66.6121 39.2795 66.6402C39.9396 66.6747 40.6025 66.664 41.2643 66.664C43.6252 66.6638 45.9861 66.6626 48.3472 66.6537C48.5837 66.6528 48.6861 66.7102 48.6772 66.9681C48.6594 67.4962 48.6639 68.0257 48.6731 68.5542C48.6767 68.7749 48.6164 68.8592 48.373 68.8586C44.6438 68.8492 40.9144 68.8766 37.1857 68.8373C35.4285 68.8188 34.6907 67.9989 34.4057 66.6037C34.3465 66.3139 34.3166 66.0134 34.3157 65.7175C34.3084 63.5031 34.3045 61.2884 34.3184 59.074C34.3209 58.6922 34.3817 58.3037 34.4692 57.931C34.7553 56.7129 35.6122 56.0194 36.9204 55.9661C37.945 55.9245 38.9715 55.917 39.997 55.9156C44.366 55.9104 48.7348 55.9136 53.1035 55.9122C53.2475 55.912 53.3624 55.8935 53.4351 56.0847C53.9193 57.3591 54.4186 58.6277 54.9188 59.8959C55.706 61.891 56.4975 63.884 57.2881 65.8775C57.353 66.0411 57.4307 66.1997 57.4931 66.364C57.5737 66.5763 57.6898 66.7243 57.9476 66.7175C58.2163 66.7104 58.4009 66.6204 58.5076 66.351C59.2172 64.562 59.939 62.7778 60.6517 60.9903C61.2748 59.4271 61.8913 57.8613 62.5106 56.2968C62.5839 56.111 62.6465 55.9161 62.9025 55.9163C63.9051 55.917 64.9078 55.9165 65.9772 55.9165Z" fill="#161615"/>
<path d="M129.11 60.9262C129.11 61.5971 129.104 62.2138 129.114 62.8305C129.117 63.0351 129.037 63.107 128.842 63.1002C128.611 63.092 128.379 63.0972 128.147 63.097C125.51 63.0945 122.873 63.0942 120.236 63.0851C120.032 63.0844 119.963 63.1431 119.965 63.3449C119.972 64.2374 119.962 65.13 119.97 66.0223C119.973 66.4967 120.131 66.6596 120.61 66.6694C121.26 66.6829 121.911 66.6742 122.562 66.6738C124.935 66.6722 127.307 66.6678 129.679 66.6753C129.775 66.6758 129.953 66.7848 129.954 66.8454C129.963 67.4831 129.945 68.1213 129.932 68.7593C129.931 68.7879 129.903 68.8158 129.886 68.8489H129.295C125.764 68.8491 122.233 68.8528 118.702 68.8439C118.353 68.8429 117.996 68.7972 117.656 68.7175C116.46 68.4371 115.737 67.6236 115.69 66.3842C115.626 64.657 115.625 62.9267 115.617 61.1979C115.613 60.3065 115.597 59.4101 115.681 58.5248C115.846 56.7884 116.768 55.9759 118.548 55.9505C120.324 55.9251 122.1 55.9272 123.877 55.9267C130.43 55.9247 136.984 55.9265 143.538 55.9267H144.488C144.488 56.591 144.495 57.2587 144.475 57.9257C144.473 57.9824 144.288 58.0795 144.188 58.0799C142.742 58.0875 141.297 58.0898 139.852 58.0726C139.547 58.069 139.483 58.1375 139.487 58.4563C139.513 60.4283 139.503 62.4007 139.505 64.3732C139.506 65.7504 139.497 67.1278 139.511 68.505C139.514 68.8032 139.425 68.8649 139.133 68.8601C137.909 68.8397 136.684 68.8521 135.459 68.8523H135.16C135.151 68.7339 135.137 68.6288 135.137 68.5239C135.138 65.1412 135.139 61.7584 135.15 58.3756C135.15 58.1414 135.097 58.0834 134.858 58.0836C130.18 58.0909 125.501 58.0884 120.823 58.0857C120.097 58.0854 119.966 58.2068 119.964 58.9199C119.963 59.493 119.982 60.0666 119.958 60.6385C119.947 60.9074 120.047 60.9449 120.279 60.9438C122.685 60.9326 125.09 60.9305 127.495 60.9264C128.022 60.9255 128.549 60.9262 129.11 60.9262Z" fill="#161615"/>
<path d="M71.9736 61.2996C72.1551 61.287 72.3397 61.2637 72.5243 61.2633C73.9915 61.2601 75.459 61.2605 76.9262 61.2615C77.5521 61.2619 77.6744 61.1554 77.6693 60.5414C77.6636 59.826 77.6334 59.111 77.6225 58.3956C77.6193 58.1949 77.529 58.1287 77.3396 58.1262C77.0642 58.1223 76.7891 58.088 76.514 58.0871C74.6937 58.0814 72.8735 58.0848 71.053 58.0747C70.8281 58.0734 70.7536 58.1184 70.7539 58.3649C70.7571 61.5594 70.747 64.7539 70.7404 67.9486C70.7397 68.2418 70.7404 68.535 70.7404 68.8412H66.4312C66.4312 68.6593 66.431 68.4982 66.4312 68.3373C66.4322 64.4262 66.4333 60.5152 66.4345 56.6041C66.4347 55.9661 66.4351 55.9686 67.0791 55.9686C71.0507 55.9688 75.0223 55.9652 78.9942 55.9716C79.3888 55.9723 79.7933 55.9892 80.176 56.0746C81.2653 56.3178 81.8107 57.0899 81.941 58.1339C82.0676 59.1489 82.1048 60.1761 81.9206 61.1956C81.7195 62.3087 81.0256 62.9974 79.8984 63.0906C79.0538 63.1603 78.2022 63.1402 77.3538 63.1615C77.2288 63.1647 77.1042 63.1763 76.8871 63.1898C79.3881 65.0971 81.8064 66.9414 84.2859 68.8325C84.1143 68.8469 84.0211 68.8613 83.9278 68.8615C82.1738 68.8658 80.4198 68.8757 78.6658 68.8617C78.4668 68.8601 78.2257 68.7715 78.0767 68.6408C76.0965 66.9028 74.1275 65.1524 72.1646 63.395C72.0591 63.3004 71.988 63.1167 71.9821 62.9714C71.9608 62.4346 71.9736 61.8967 71.9736 61.2996Z" fill="#161615"/>
<path d="M91.6808 68.8536C90.0257 68.8536 88.3705 68.8696 86.7159 68.8431C86.26 68.8358 85.7836 68.7657 85.356 68.6137C84.4027 68.2753 83.961 67.4952 83.842 66.5432C83.7561 65.857 83.7355 65.1596 83.733 64.4673C83.7268 62.6934 83.7401 60.9193 83.762 59.1454C83.7666 58.7739 83.8155 58.3982 83.8888 58.0333C84.1384 56.7898 84.9002 56.1042 86.1727 55.9678C86.5557 55.9267 86.9428 55.9048 87.3281 55.9041C90.2632 55.8988 93.1983 55.8979 96.1334 55.905C96.5072 55.9059 96.8848 55.9358 97.2536 55.9946C98.5814 56.2066 99.3355 57.0343 99.4426 58.4565C99.5114 59.3668 99.5171 60.2831 99.5231 61.1969C99.5324 62.6514 99.526 64.106 99.5094 65.5604C99.505 65.9436 99.4694 66.3323 99.3949 66.708C99.1028 68.1768 98.2048 68.7871 96.8107 68.8344C95.1026 68.8925 93.3909 68.8484 91.6808 68.8484V68.8536ZM95.1586 62.4224H95.1698C95.1698 61.2225 95.1742 60.0224 95.168 58.8225C95.1648 58.217 95.0268 58.0771 94.4265 58.0758C92.5523 58.0719 90.6779 58.0735 88.8037 58.0783C88.2633 58.0797 88.1294 58.2175 88.0949 58.7633C88.088 58.873 88.083 58.9834 88.0832 59.0933C88.0857 61.3834 88.0889 63.6734 88.0931 65.9635C88.0933 66.0403 88.102 66.1175 88.1134 66.1934C88.163 66.5279 88.3255 66.6787 88.6664 66.6787C90.5956 66.6799 92.5251 66.6797 94.4546 66.6723C95.0092 66.67 95.157 66.511 95.1579 65.9564C95.1602 64.7785 95.1586 63.6003 95.1586 62.4224Z" fill="#161615"/>
<path d="M20.8291 60.9965H21.6585C23.6004 60.9974 25.5422 60.9942 27.484 61.0047C27.7166 61.0059 27.7891 60.9464 27.7872 60.7111C27.776 59.2459 27.7859 57.7805 27.771 56.3154C27.7678 56.0082 27.8377 55.899 28.1739 55.905C29.3317 55.9246 30.49 55.9054 31.6483 55.9011C31.8119 55.9006 31.9753 55.9011 32.1599 55.9011V68.825H27.8044C27.7961 68.6596 27.7802 68.4889 27.7802 68.318C27.7806 66.6545 27.782 64.991 27.7891 63.3275C27.7898 63.1639 27.7536 63.0846 27.5718 63.0848C25.3655 63.0873 23.1593 63.0852 20.9529 63.0852C20.9319 63.0852 20.9109 63.0971 20.8462 63.117V63.75C20.8457 65.3143 20.8467 66.8786 20.8437 68.4432C20.843 68.876 20.8377 68.8639 20.3928 68.8611C19.1905 68.8543 17.9878 68.8502 16.7854 68.8644C16.5051 68.8678 16.4406 68.7912 16.4461 68.5099C16.4715 67.2104 16.4724 65.9103 16.4731 64.6103C16.4749 61.8669 16.4708 59.1234 16.4697 56.3798C16.4694 55.921 16.4706 55.9264 16.9344 55.9276C18.2232 55.9305 19.512 55.9285 20.8291 55.9285V60.9965Z" fill="#161615"/>
<path d="M14.9679 68.8522H14.1C10.7133 68.851 7.32645 68.8561 3.93979 68.844C3.22846 68.8414 2.53381 68.7206 1.95021 68.2567C1.28297 67.7266 1.04647 66.9837 1.01403 66.1851C0.960099 64.8545 0.948217 63.5216 0.946388 62.1897C0.945017 61.0115 0.957357 59.8322 1.01425 58.6559C1.03505 58.2261 1.14359 57.7789 1.31291 57.3824C1.72719 56.4126 2.56305 56.0224 3.5607 55.9689C4.47403 55.9202 5.39057 55.9211 6.30572 55.9202C8.71027 55.9182 11.1151 55.9271 13.5198 55.9314C13.8811 55.9321 14.2424 55.9317 14.637 55.9317C14.637 56.6005 14.645 57.2675 14.6242 57.9336C14.6221 57.9969 14.4389 58.1068 14.3399 58.1068C11.6708 58.1066 9.00162 58.0942 6.33223 58.0853C5.37206 58.0821 5.30076 58.1534 5.30076 59.1122C5.30076 61.3705 5.30168 63.6288 5.30305 65.8871C5.3035 66.4835 5.39833 66.6023 6.00044 66.6458C6.42866 66.6766 6.8603 66.6624 7.29035 66.6624C9.70609 66.6617 12.1221 66.659 14.5378 66.6574C14.9802 66.6572 14.974 66.6579 14.9695 67.0884C14.9633 67.6599 14.9679 68.2313 14.9679 68.8522Z" fill="#161615"/>
<path d="M101.714 68.8372V55.9302H106.069V56.3257C106.069 59.6313 106.074 62.937 106.062 66.2428C106.061 66.5787 106.153 66.6708 106.488 66.6694C109.269 66.658 112.049 66.6699 114.83 66.6598C115.132 66.6587 115.207 66.7512 115.194 67.0375C115.17 67.5542 115.181 68.0727 115.186 68.5902C115.188 68.779 115.139 68.8612 114.924 68.861C110.621 68.8528 106.318 68.8523 102.015 68.85C101.928 68.8498 101.841 68.8427 101.714 68.8372Z" fill="#161615"/>
</svg>
