<svg width="82" height="88" viewBox="0 0 82 88" fill="none" xmlns="http://www.w3.org/2000/svg">
<g id="Group 261">
<g id="Group 260">
<path id="Path 1571" d="M46.7096 85.0966H9.53742C5.60828 85.0966 2.42285 81.9413 2.42285 78.0494V9.45685C2.42285 5.56492 5.60828 2.40967 9.53742 2.40967H59.8137C63.7428 2.40967 66.9283 5.56492 66.9283 9.45685V64.7857" stroke="#B2CAEC" stroke-width="3" stroke-linecap="round"/>
<path id="Rectangle 144" d="M14.7549 20.064C14.7549 17.5787 16.7696 15.564 19.2549 15.564H49.1479C51.6331 15.564 53.6479 17.5787 53.6479 20.064V34.5546C53.6479 37.0398 51.6331 39.0546 49.1479 39.0546H19.2549C16.7696 39.0546 14.7549 37.0398 14.7549 34.5546V20.064Z" stroke="#B2CAEC" stroke-width="3"/>
<ellipse id="Ellipse 465" cx="18.075" cy="50.7599" rx="3.32013" ry="3.28868" stroke="#B2CAEC" stroke-width="3"/>
<ellipse id="Ellipse 466" cx="18.075" cy="65.4835" rx="3.32013" ry="3.28868" stroke="#B2CAEC" stroke-width="3"/>
<ellipse id="Ellipse 467" cx="34.2015" cy="50.7599" rx="3.32013" ry="3.28868" stroke="#B2CAEC" stroke-width="3"/>
<ellipse id="Ellipse 468" cx="34.2015" cy="65.4835" rx="3.32013" ry="3.28868" stroke="#B2CAEC" stroke-width="3"/>
<ellipse id="Ellipse 469" cx="50.3275" cy="50.7599" rx="3.32013" ry="3.28868" stroke="#B2CAEC" stroke-width="3"/>
<ellipse id="Ellipse 470" cx="50.3275" cy="65.4835" rx="3.32013" ry="3.28868" stroke="#B2CAEC" stroke-width="3"/>
<path id="Path 1572" d="M52.3267 76.6494L62.0584 85.0835L79.5774 68.2153" stroke="#B2CAEC" stroke-width="3" stroke-linecap="round"/>
</g>
</g>
</svg>
