<svg width="16" height="16" viewBox="0 0 16 16" fill="none" xmlns="http://www.w3.org/2000/svg">
<path fill-rule="evenodd" clip-rule="evenodd" d="M14.3901 2.41313C14.7002 2.65813 14.7402 3.10213 14.5 3.40513L12.2099 6.22813C12.0801 6.39012 11.8799 6.48512 11.6802 6.48912C11.4702 6.49412 11.27 6.40614 11.1299 6.25014L9.89012 4.83812C9.62987 4.54613 9.66014 4.10014 9.95018 3.84212C10.25 3.58513 10.6899 3.61412 10.9502 3.90614L11.6401 4.69014L13.3999 2.51713C13.6499 2.21412 14.0898 2.16713 14.3901 2.41313Z" fill="white"/>
<path fill-rule="evenodd" clip-rule="evenodd" d="M4.31017 2.44225L5.72032 4.67125C5.54991 4.83126 5.37023 4.99025 5.17003 5.16124C4.99034 5.30825 4.81017 5.46425 4.62023 5.63826C4.14025 6.06826 4.04991 6.76024 4.35997 7.29924C5.99034 10.1473 8.22032 11.4433 9.22032 11.9083C9.81993 12.1883 10.4703 11.9672 10.8302 11.5093L11.8102 10.2753V10.2742C11.8199 10.2742 11.8199 10.2742 11.8199 10.2742C11.8199 10.2742 11.8199 10.2753 11.8199 10.2763C12.3902 10.6243 13.1901 11.0983 13.92 11.4993C13.7901 12.2843 13.4903 12.7423 13.1603 13.0213C12.8102 13.3153 12.3502 13.4693 11.8502 13.5253C10.8502 13.6362 9.81993 13.3342 9.60021 13.2612C9.35021 13.1343 7.98009 12.4202 6.50988 11.2633C5.00988 10.0703 3.49034 8.48024 2.91027 6.65627C2.49034 5.32427 2.65001 4.38625 2.98009 3.73925C3.29991 3.11327 3.81993 2.68926 4.31017 2.44225ZM3.79991 1.12325C4.46007 0.809253 5.15001 1.13625 5.47032 1.64226L6.95031 3.97426C7.25011 4.44527 7.27013 5.13426 6.79015 5.60625C6.58019 5.80925 6.29015 6.05727 6.02013 6.28926C5.87023 6.41625 5.73009 6.53826 5.60997 6.64424C7.02013 9.06926 8.90001 10.1912 9.75011 10.6012L10.7003 9.40126C11.15 8.83525 11.9503 8.70226 12.5602 9.07524C13.13 9.41927 13.9103 9.88326 14.61 10.2703C15.0802 10.5282 15.42 11.0672 15.3199 11.6753C15.15 12.7663 14.7003 13.5622 14.0699 14.0983C13.4401 14.6263 12.6901 14.8503 12.0099 14.9253C10.6603 15.0752 9.37023 14.6713 9.14025 14.5932C9.08019 14.5733 9.0299 14.5523 8.97032 14.5253C8.72032 14.3982 7.23009 13.6303 5.64025 12.3673C4.06017 11.1173 2.27013 9.31026 1.56993 7.08126C1.04991 5.44426 1.20031 4.11727 1.72032 3.09725C2.24034 2.09426 3.06993 1.46227 3.79991 1.12325Z" fill="white"/>
</svg>
