<svg width="84" height="84" viewBox="0 0 84 84" fill="none" xmlns="http://www.w3.org/2000/svg">
<g id="Group 695">
<path id="Path 1568" d="M82.0039 42.0018C82.0039 64.0946 64.0933 82.0031 42.0026 82.0031C19.9099 82.0031 2.00024 64.0946 2.00024 42.0018C2.00024 19.9091 19.9099 2.00049 42.0026 2.00049C64.0933 2.00049 82.0039 19.9091 82.0039 42.0018Z" stroke="#B2CAEC" stroke-width="3" stroke-linecap="round" stroke-linejoin="round"/>
<circle id="Ellipse 464" cx="42.0015" cy="45.2761" r="5.40456" stroke="#B2CAEC" stroke-width="3" stroke-linecap="round" stroke-linejoin="round"/>
<line id="Line 4" x1="78.6702" y1="32.6118" x2="5.33312" y2="32.6118" stroke="#B2CAEC" stroke-width="3" stroke-linecap="round" stroke-linejoin="round"/>
<line id="Line 5" x1="20.4849" y1="32.9595" x2="20.4849" y2="49.7786" stroke="#B2CAEC" stroke-width="3" stroke-linecap="round" stroke-linejoin="round"/>
<line id="Line 6" x1="66.5183" y1="32.9595" x2="66.5183" y2="49.9977" stroke="#B2CAEC" stroke-width="3" stroke-linecap="round" stroke-linejoin="round"/>
<line id="Line 7" x1="33.4827" y1="60.4512" x2="50.5209" y2="60.4512" stroke="#B2CAEC" stroke-width="3" stroke-linecap="round" stroke-linejoin="round"/>
<path id="Path 1569" d="M3.50366 51.8159H20.6996C26.5345 51.8159 31.2654 56.4697 31.2654 62.2096V80.5147" stroke="#B2CAEC" stroke-width="3" stroke-linecap="round" stroke-linejoin="round"/>
<path id="Path 1570" d="M80.6213 51.8159H63.3034C57.4684 51.8159 52.7385 56.4697 52.7385 62.2096V80.5147" stroke="#B2CAEC" stroke-width="3" stroke-linecap="round" stroke-linejoin="round"/>
</g>
</svg>
