<svg width="300" height="70" viewBox="0 0 300 70" fill="none" xmlns="http://www.w3.org/2000/svg">
<path fill-rule="evenodd" clip-rule="evenodd" d="M279.289 25.7421H267.058C265.005 25.8635 264.431 26.3719 264.431 28.8651V35.7361H279.289V25.7421ZM285.803 20.24V50.2011H279.289V41.5881H264.431V50.2011H257.918V26.7129C257.918 22.5628 259.6 20.24 264.431 20.24H285.803ZM251.406 26.7064V42.9208C251.406 48.0826 248.506 50.1947 244.892 50.1947H224.348V20.2344H244.892C250.44 20.2344 251.406 23.762 251.406 26.7064ZM244.814 28.5096C244.814 26.8689 243.814 25.7357 242.062 25.7357H230.862V44.4561L242.062 44.4553C244.614 44.3258 244.814 42.7961 244.814 41.5824V28.5096ZM91.582 20.2344H98.0951V32.0428H112.667V20.2344H119.18V50.1947H112.667V37.968H98.0951V50.1947H91.582V20.2344ZM130.343 20.2344L138.508 32.482L146.575 20.2344H154.484L141.761 39.3884V50.1947H135.247V39.3867L122.437 20.2344H130.343ZM191.044 20.2344H212.031C215.023 20.2344 217.92 20.6542 217.835 26.7064V50.1947H211.322V28.8587C211.322 26.2794 211.012 25.7357 208.988 25.7357H197.558V50.1947H191.044V20.2344ZM298.83 50.2011H292.316V20.24H298.83V50.2011ZM157.741 50.1947H178.728C182.9 50.1947 184.616 48.9875 184.531 42.9714V20.2344H178.018V41.6227C178.018 44.1867 177.709 44.498 175.684 44.498H164.254V20.2344H157.741V50.1947Z" fill="#030303"/>
<path fill-rule="evenodd" clip-rule="evenodd" d="M45.6078 39.6589C46.1821 42.6267 44.6266 45.0918 43.3341 47.4846C41.8985 49.7108 39.5283 51.625 36.6803 51.3379C30.2903 51.2422 24.0434 50.261 18.251 48.5141C17.988 48.4425 17.725 48.2744 17.581 48.0355C17.4612 47.7001 17.6293 47.3889 17.8681 47.1741C23.1579 42.8897 29.4522 40.9031 35.6749 38.8209C37.9969 38.1509 40.462 37.4327 43.0711 37.7681C44.1481 37.9112 45.225 38.6536 45.6078 39.6589ZM67.4111 26.9738C70.3789 29.4156 73.0596 32.7421 72.15 36.7627C70.6669 42.6983 64.2045 45.8575 59.0587 47.8674C56.2581 48.8012 53.4343 49.7591 50.3708 50.0454C50.1794 50.0221 49.8681 50.0696 49.8199 49.7824L49.8922 49.447C54.2482 44.5409 57.5506 39.0364 60.4468 33.4603C61.7868 30.9469 63.0318 28.362 64.1803 25.8253C64.3476 25.6338 64.5157 25.5381 64.7071 25.4666C65.7841 25.5623 66.5497 26.4003 67.4111 26.9738ZM25.6472 20.6561L25.5506 21.0149C19.2563 28.1714 15.1159 36.4756 11.191 44.7331C10.4253 45.4506 9.68295 44.4935 8.98886 44.1822C5.49425 41.8852 2.33503 38.175 3.24467 33.7716C4.70525 28.0274 10.6167 24.9639 15.547 22.8824C18.4665 21.7805 21.5067 20.895 24.7134 20.3923C25.0488 20.3923 25.4799 20.3449 25.6472 20.6561ZM56.8807 21.8047C57.2394 21.9961 57.6705 22.0677 57.886 22.4272C58.0774 22.8341 57.6946 23.0971 57.479 23.3601C52.5247 27.2376 46.8521 29.3915 41.0604 31.2823C38.1167 31.9997 35.1489 33.2922 31.8699 32.5748C31.1034 32.3834 30.4093 31.8807 29.979 31.1384C29.1651 28.8888 30.2661 26.5435 31.2232 24.581C32.4916 22.1159 34.742 19.2197 37.8529 19.1722C44.5542 19.124 50.8735 20.1293 56.8807 21.8047ZM65.1616 21.9961C70.2358 24.7725 75.9799 29.6545 75.3816 36.1643C74.6875 42.1956 69.0631 46.4085 64.0372 48.9452C49.3654 55.9577 28.7581 56.1725 13.6079 50.0454C8.48618 47.9157 2.742 44.2538 0.588129 38.7493C-1.06306 34.226 0.946839 29.5113 4.32161 26.3762C11.3824 19.962 20.3815 17.7599 29.6436 16.4916C39.6964 15.2715 50.2751 16.3484 59.2742 19.4352C61.2849 20.1776 63.2707 20.9907 65.1616 21.9961Z" fill="#030303"/>
</svg>
