<svg width="145" height="60" viewBox="0 0 145 60" fill="none" xmlns="http://www.w3.org/2000/svg">
<path d="M84.131 43.935C84.131 44.2262 84.2065 44.3848 84.3813 44.3848C84.5069 44.3848 84.607 44.332 84.7317 44.2522L129.902 13.236C130.703 12.6804 131.429 12.3902 132.506 12.3902H142.447C143.974 12.3902 145 13.4744 145 15.0874V35.1031C145 37.5101 144.499 38.9106 142.447 40.2063L130.403 47.8481C130.252 47.9539 130.102 48.0068 130.002 48.0068C129.852 48.0068 129.726 47.901 129.726 47.4521V24.0768C129.726 23.8125 129.652 23.6279 129.476 23.6279C129.351 23.6279 129.251 23.6808 129.126 23.7596L96.0996 46.4207C95.173 47.0551 94.4221 47.2406 93.571 47.2406H71.6617C70.1343 47.2406 69.1076 46.1564 69.1076 44.5434V15.7218C69.1076 15.5103 69.0074 15.3248 68.8573 15.3248C68.7316 15.3248 68.6315 15.3777 68.5068 15.4575L46.7231 29.2858C46.4974 29.4184 46.4473 29.5511 46.4473 29.6568C46.4473 29.7625 46.4728 29.8414 46.6476 30L62.1971 46.4207C62.3974 46.6322 62.5475 46.8167 62.5475 46.9753C62.5475 47.1609 62.3218 47.2666 62.0469 47.2666H47.9747C46.8733 47.2666 46.0223 47.0811 45.4206 46.4467L35.9815 36.4787C35.8814 36.3729 35.8058 36.3201 35.7057 36.3201C35.631 36.3201 35.5054 36.3729 35.4053 36.4258L19.631 46.4467C18.6798 47.0551 18.0281 47.2406 17.0769 47.2406H2.55411C1.02674 47.2406 0 46.1564 0 44.5434V24.8968C0 22.4639 0.501538 21.0893 2.55411 19.7936L14.6729 12.0989C14.7986 12.0201 14.8987 11.9932 14.9988 11.9932C15.1736 11.9932 15.2737 12.2046 15.2737 12.6276V38.9106C15.2737 39.1759 15.3492 39.3076 15.5249 39.3076C15.6251 39.3076 15.7498 39.2288 15.8754 39.149L56.814 13.1563C57.7897 12.5488 58.3914 12.3632 59.5174 12.3632H81.5523C83.0796 12.3632 84.1064 13.4475 84.1064 15.0605L84.131 43.935Z" fill="white"/>
</svg>
