<svg width="171" height="70" viewBox="0 0 171 70" fill="none" xmlns="http://www.w3.org/2000/svg">
<path d="M98.8241 50.1753C98.8241 50.496 98.9129 50.6707 99.1182 50.6707C99.2657 50.6707 99.3833 50.6125 99.5298 50.5246L152.589 16.3687C153.53 15.7569 154.383 15.4372 155.648 15.4372H167.325C169.119 15.4372 170.324 16.6312 170.324 18.4074V40.4494C170.324 43.1 169.736 44.6423 167.325 46.0692L153.177 54.4846C153.001 54.6011 152.824 54.6593 152.707 54.6593C152.53 54.6593 152.383 54.5428 152.383 54.0485V28.3069C152.383 28.0158 152.295 27.8126 152.089 27.8126C151.942 27.8126 151.824 27.8708 151.677 27.9576L112.883 52.9127C111.795 53.6113 110.913 53.8156 109.913 53.8156H84.1771C82.383 53.8156 81.177 52.6216 81.177 50.8454V19.1061C81.177 18.8732 81.0593 18.6689 80.8829 18.6689C80.7354 18.6689 80.6178 18.7271 80.4713 18.815L54.8832 34.0431C54.618 34.1892 54.5592 34.3353 54.5592 34.4517C54.5592 34.5682 54.5891 34.655 54.7944 34.8296L73.0596 52.9127C73.2948 53.1456 73.4712 53.3488 73.4712 53.5235C73.4712 53.7278 73.2061 53.8442 72.8832 53.8442H56.3533C55.0596 53.8442 54.0599 53.6399 53.3531 52.9413L42.2655 41.9642C42.1479 41.8478 42.0592 41.7895 41.9416 41.7895C41.8539 41.7895 41.7063 41.8478 41.5887 41.906L23.0595 52.9413C21.9421 53.6113 21.1766 53.8156 20.0593 53.8156H3.00018C1.20606 53.8156 0 52.6216 0 50.8454V29.2098C0 26.5307 0.58913 25.017 3.00018 23.5901L17.2355 15.1164C17.3831 15.0296 17.5007 15 17.6183 15C17.8236 15 17.9412 15.2329 17.9412 15.6986V44.6423C17.9412 44.9345 18.0299 45.0795 18.2363 45.0795C18.3539 45.0795 18.5004 44.9927 18.6479 44.9048L66.7363 16.2808C67.8825 15.6118 68.5893 15.4075 69.9119 15.4075H95.7951C97.5892 15.4075 98.7953 16.6016 98.7953 18.3778L98.8241 50.1753Z" fill="#030303"/>
</svg>
