<svg width="179" height="60" viewBox="0 0 179 60" fill="none" xmlns="http://www.w3.org/2000/svg">
<path d="M0.991699 29.917C1.36648 28.6291 1.58597 27.2697 2.14225 26.0644C5.9857 17.736 9.89992 9.44046 13.7919 1.13438C13.8266 1.06024 13.8475 0.973635 13.9 0.9159C14.183 0.606882 14.4733 0.304425 14.7616 0C15.0374 0.305737 15.4037 0.568829 15.5747 0.924429C17.0325 3.95753 18.434 7.01687 19.8958 10.048C20.8065 11.9382 20.8373 13.7838 19.9351 15.6864C15.8309 24.3448 11.7509 33.0144 7.64534 41.6715C7.42454 42.1386 7.05303 42.5349 6.75098 42.964C6.407 42.5303 5.96932 42.1412 5.73475 41.6551C4.52 39.1383 3.34914 36.5999 2.17763 34.0622C1.58204 32.771 1.11095 31.443 1.23806 29.9806C1.1555 29.959 1.0736 29.938 0.991699 29.917Z" fill="white"/>
<path d="M22.8114 16.7583C23.0964 17.2182 23.3054 17.4957 23.4529 17.8021C24.7587 20.5177 26.073 23.2286 27.3455 25.9599C28.5995 28.6512 28.61 31.3714 27.3514 34.0685C25.3071 38.4466 23.2412 42.8142 21.1878 47.1884C19.3421 51.1196 17.5095 55.0568 15.6441 58.9789C15.4606 59.3647 15.0885 59.6619 14.8041 59.9998C14.4811 59.6665 14.0559 59.385 13.8541 58.9907C13.2362 57.7835 12.716 56.5278 12.1374 55.3002C11.2929 53.5078 10.4457 51.716 9.57162 49.938C8.68643 48.1364 8.66481 46.3584 9.5251 44.5338C13.0108 37.1449 16.4749 29.7462 19.9482 22.3515C20.6401 20.8785 21.328 19.403 22.0396 17.9393C22.2139 17.5817 22.476 17.2661 22.8114 16.7583Z" fill="white"/>
<path d="M158.056 25.6666C158.056 29.9456 158.058 34.2246 158.055 38.5036C158.054 40.7225 158.05 40.7212 155.864 40.7068C155.07 40.7015 154.275 40.7055 153.411 40.7055V19.2875C155.052 19.2875 156.65 19.2238 158.237 19.3301C158.664 19.3583 159.123 19.8445 159.453 20.2198C165.065 26.6101 170.661 33.0141 176.256 39.4195C176.615 39.8316 176.934 40.279 177.28 40.7206C175.757 40.7206 174.333 40.8098 172.93 40.6766C172.377 40.6241 171.765 40.1734 171.362 39.7377C167.241 35.2954 163.154 30.8222 159.071 26.345C158.809 26.057 158.663 25.6646 158.462 25.3208C158.326 25.4357 158.192 25.5511 158.056 25.6666Z" fill="white"/>
<path d="M117.963 40.6866C121.902 33.6087 125.762 26.6732 129.744 19.5205C133.692 26.6187 137.582 33.6126 141.504 40.661C139.988 40.661 138.531 40.7233 137.087 40.6157C136.737 40.5895 136.336 40.0521 136.116 39.6618C134.04 35.9713 131.998 32.2624 129.808 28.3082C129.225 29.2982 128.693 30.1544 128.206 31.0349C126.619 33.9079 125.027 36.7789 123.483 39.6756C123.069 40.453 122.557 40.7666 121.667 40.7056C120.51 40.6269 119.343 40.6866 117.963 40.6866Z" fill="white"/>
<path d="M91.2212 19.2793C92.6934 19.2793 93.9796 19.1888 95.2409 19.3259C95.7172 19.3771 96.2997 19.86 96.5559 20.3048C98.5543 23.7735 100.484 27.2816 102.436 30.7766C102.592 31.0541 102.762 31.3231 103.027 31.7667C103.764 30.4164 104.441 29.1804 105.112 27.9423C106.449 25.4794 107.817 23.0328 109.101 20.5429C109.568 19.6362 110.167 19.2505 111.187 19.3134C112.331 19.3836 113.481 19.3292 114.796 19.3292C110.853 26.4117 106.974 33.3806 103.025 40.4743C99.0621 33.3583 95.1688 26.3677 91.2212 19.2793Z" fill="white"/>
<path d="M65.3393 36.6362V40.6691H41.3672V29.0518C42.6298 29.0518 43.9035 29.0052 45.1674 29.0938C45.4 29.1102 45.7682 29.6711 45.7774 29.9887C45.8292 31.789 45.8534 33.5945 45.7577 35.3916C45.702 36.4393 46.0676 36.665 47.0616 36.6578C53.1269 36.6145 59.1928 36.6362 65.3393 36.6362Z" fill="white"/>
<path d="M79.8323 40.6536C78.5042 40.6536 77.2652 40.6923 76.0334 40.6195C75.8008 40.6057 75.4044 40.1471 75.4031 39.8926C75.3684 33.0909 75.3756 26.2892 75.3756 19.3701H79.8323V40.6536Z" fill="white"/>
<path d="M43.4099 23.7069C42.3209 23.6773 41.2549 22.5843 41.2772 21.5182C41.3001 20.4172 42.4887 19.2986 43.5973 19.3354C44.6561 19.3701 45.7745 20.536 45.7359 21.5647C45.6933 22.705 44.5716 23.7384 43.4099 23.7069Z" fill="white"/>
<path d="M177.493 21.4234C177.49 22.6496 176.507 23.7131 175.379 23.7079C174.378 23.7039 173.245 22.5663 173.21 21.5323C173.173 20.413 174.184 19.3921 175.334 19.3882C176.599 19.3849 177.496 20.2299 177.493 21.4234Z" fill="white"/>
</svg>
