<svg width="210" height="70" viewBox="0 0 210 70" fill="none" xmlns="http://www.w3.org/2000/svg">
<path d="M0 34.9031C0.43783 33.4006 0.694251 31.8146 1.34411 30.4085C5.83416 20.6921 10.4069 11.0139 14.9536 1.32344C14.9941 1.23695 15.0186 1.13591 15.0799 1.06855C15.4105 0.708029 15.7496 0.355163 16.0864 0C16.4087 0.356694 16.8365 0.663634 17.0363 1.0785C18.7394 4.61711 20.3767 8.18635 22.0844 11.7227C23.1483 13.9279 23.1843 16.0811 22.1303 18.3008C17.3356 28.4023 12.5692 38.5168 7.77301 48.6167C7.51506 49.1617 7.08106 49.624 6.72819 50.1246C6.32633 49.6187 5.81502 49.1648 5.541 48.5976C4.12188 45.6614 2.75404 42.6999 1.38544 39.7392C0.689659 38.2328 0.139309 36.6836 0.287804 34.9774C0.191359 34.9521 0.0956796 34.9276 0 34.9031Z" fill="#161615"/>
<path d="M25.4908 19.5518C25.8237 20.0883 26.0679 20.4121 26.2401 20.7696C27.7656 23.9377 29.3011 27.1005 30.7876 30.287C32.2526 33.4268 32.2649 36.6003 30.7945 39.747C28.4063 44.8548 25.9929 49.9503 23.594 55.0535C21.4378 59.64 19.2968 64.2334 17.1177 68.8091C16.9033 69.2592 16.4686 69.606 16.1364 70.0002C15.759 69.6113 15.2622 69.283 15.0265 68.8229C14.3047 67.4145 13.6969 65.9495 13.021 64.5173C12.0344 62.4262 11.0447 60.3358 10.0236 58.2614C8.98948 56.1595 8.96422 54.0852 9.96923 51.9565C14.0414 43.3362 18.0882 34.7043 22.1458 26.0771C22.9541 24.3587 23.7578 22.6372 24.5891 20.9295C24.7927 20.5124 25.0989 20.1442 25.4908 19.5518Z" fill="#161615"/>
<path d="M183.487 29.9449C183.487 34.937 183.49 39.9292 183.486 44.9214C183.485 47.5101 183.48 47.5086 180.927 47.4917C179.999 47.4856 179.071 47.4902 178.061 47.4902V22.5025C179.978 22.5025 181.845 22.4283 183.699 22.5523C184.198 22.5852 184.734 23.1524 185.119 23.5902C191.676 31.0456 198.213 38.517 204.75 45.9899C205.169 46.4706 205.541 46.9927 205.945 47.5078C204.166 47.5078 202.503 47.6119 200.864 47.4565C200.218 47.3953 199.503 46.8694 199.032 46.3612C194.217 41.1784 189.443 35.9597 184.674 30.7363C184.367 30.4003 184.196 29.9426 183.962 29.5415C183.803 29.6754 183.646 29.8101 183.487 29.9449Z" fill="#161615"/>
<path d="M136.649 47.4677C141.251 39.2101 145.761 31.1187 150.412 22.7739C155.024 31.0552 159.57 39.2147 164.151 47.4378C162.38 47.4378 160.677 47.5105 158.991 47.385C158.581 47.3544 158.113 46.7275 157.857 46.2721C155.431 41.9665 153.046 37.6395 150.488 33.0262C149.807 34.1812 149.185 35.1801 148.616 36.2073C146.762 39.5592 144.902 42.9087 143.098 46.2881C142.614 47.1952 142.017 47.5611 140.977 47.4899C139.625 47.398 138.262 47.4677 136.649 47.4677Z" fill="#161615"/>
<path d="M105.409 22.4922C107.129 22.4922 108.632 22.3866 110.105 22.5466C110.662 22.6063 111.342 23.1696 111.641 23.6886C113.976 27.7355 116.23 31.8282 118.511 35.9057C118.693 36.2295 118.892 36.5433 119.202 37.0608C120.062 35.4855 120.853 34.0434 121.637 32.599C123.199 29.7256 124.797 26.8713 126.296 23.9664C126.843 22.9086 127.542 22.4585 128.734 22.532C130.07 22.6139 131.414 22.5504 132.95 22.5504C128.344 30.8133 123.812 38.9437 119.199 47.2196C114.569 38.9177 110.021 30.762 105.409 22.4922Z" fill="#161615"/>
<path d="M75.173 42.7421V47.4473H47.168V33.8937C48.643 33.8937 50.131 33.8393 51.6075 33.9427C51.8792 33.9618 52.3094 34.6162 52.3201 34.9867C52.3806 37.0871 52.4089 39.1936 52.2972 41.2901C52.2321 42.5125 52.6592 42.7758 53.8204 42.7674C60.906 42.7169 67.9924 42.7421 75.173 42.7421Z" fill="#161615"/>
<path d="M92.1042 47.4294C90.5527 47.4294 89.1052 47.4746 87.6662 47.3896C87.3945 47.3735 86.9314 46.8385 86.9298 46.5415C86.8893 38.6062 86.8977 30.6709 86.8977 22.5986H92.1042V47.4294Z" fill="#161615"/>
<path d="M49.5544 27.6583C48.2822 27.6238 47.0369 26.3486 47.0629 25.1048C47.0897 23.8204 48.4782 22.5153 49.7733 22.5582C51.0103 22.5987 52.3169 23.9589 52.2717 25.1591C52.2219 26.4894 50.9115 27.695 49.5544 27.6583Z" fill="#161615"/>
<path d="M206.195 24.994C206.192 26.4246 205.043 27.6654 203.725 27.6593C202.556 27.6547 201.232 26.3274 201.191 25.1211C201.148 23.8153 202.329 22.6242 203.672 22.6196C205.15 22.6158 206.198 23.6017 206.195 24.994Z" fill="#161615"/>
</svg>
