<svg width="160" height="40" viewBox="0 0 160 40" fill="none" xmlns="http://www.w3.org/2000/svg">
<path d="M3.40849 33.2023L4.35945 35.7632H2.47664L3.40849 33.2023ZM2.68801 31.5923L0 38.4936H1.47834L2.04767 36.9264H4.80669L5.40924 38.4936H6.92496L4.16179 31.5923H2.68801Z" fill="#030303"/>
<path d="M14.9277 32.9858H17.2423C17.7004 32.9858 18.0411 33.0052 18.2651 33.0447C18.4916 33.0815 18.6929 33.1597 18.8692 33.2803C19.0483 33.4008 19.197 33.5616 19.3155 33.7632C19.4339 33.9624 19.4932 34.1862 19.4932 34.4349C19.4932 34.7045 19.4196 34.9521 19.2723 35.1773C19.1274 35.4022 18.9298 35.5712 18.6797 35.6838C19.0326 35.786 19.3036 35.9599 19.4932 36.2062C19.683 36.4522 19.7778 36.7415 19.7778 37.074C19.7778 37.3359 19.7158 37.5912 19.5921 37.84C19.4709 38.0859 19.3036 38.2838 19.0904 38.4331C18.8797 38.5796 18.6191 38.6697 18.3083 38.704C18.1136 38.7248 17.6436 38.7379 16.8985 38.7431H14.9277V32.9858ZM16.0969 33.944V35.2754H16.8629C17.3186 35.2754 17.6015 35.2688 17.7123 35.2556C17.9122 35.2321 18.069 35.1642 18.1822 35.0516C18.2979 34.9362 18.3557 34.7859 18.3557 34.5998C18.3557 34.4218 18.3059 34.2776 18.2059 34.1678C18.1084 34.0553 17.9624 33.9874 17.7673 33.9638C17.6516 33.9506 17.3186 33.944 16.7682 33.944H16.0969ZM16.0969 36.2336V37.7731H17.1789C17.6001 37.7731 17.8676 37.7613 17.9809 37.7378C18.1544 37.7063 18.2955 37.6304 18.4034 37.5098C18.5139 37.3869 18.5693 37.2233 18.5693 37.019C18.5693 36.8464 18.5271 36.6995 18.4428 36.5793C18.3585 36.4588 18.2362 36.3711 18.0756 36.316C17.9175 36.261 17.5726 36.2336 17.0406 36.2336H16.0969Z" fill="#030303"/>
<path d="M30.2545 38.7431V33.9596H28.5366V32.9858H33.1376V33.9596H31.4236V38.7431H30.2545Z" fill="#030303"/>
<path d="M41.9473 35.8999C41.9473 35.3134 42.0358 34.8215 42.212 34.4234C42.3437 34.13 42.5228 33.867 42.7492 33.6339C42.9781 33.4011 43.2282 33.2282 43.4996 33.1156C43.8602 32.9636 44.2761 32.8877 44.7475 32.8877C45.6007 32.8877 46.2824 33.151 46.7931 33.6772C47.3066 34.2034 47.5634 34.9351 47.5634 35.8725C47.5634 36.802 47.3094 37.5298 46.8012 38.0561C46.2929 38.5798 45.6135 38.8414 44.7632 38.8414C43.9023 38.8414 43.2178 38.5809 42.7095 38.0599C42.2016 37.5364 41.9473 36.8165 41.9473 35.8999ZM43.1519 35.8607C43.1519 36.5127 43.3035 37.0074 43.6062 37.3452C43.909 37.6805 44.2932 37.8479 44.7593 37.8479C45.2254 37.8479 45.6073 37.6816 45.9048 37.3493C46.2047 37.014 46.3549 36.5127 46.3549 35.8452C46.3549 35.1852 46.2086 34.6929 45.9166 34.3683C45.6268 34.0437 45.2411 33.8813 44.7593 33.8813C44.2775 33.8813 43.8891 34.0462 43.5944 34.3763C43.2993 34.7033 43.1519 35.1984 43.1519 35.8607Z" fill="#030303"/>
<path d="M58.2735 38.7431V33.9596H56.5557V32.9858H61.1566V33.9596H59.4426V38.7431H58.2735Z" fill="#030303"/>
<path d="M70.4048 38.7431V32.9858H74.6978V33.9596H71.5739V35.2362H74.4804V36.2062H71.5739V37.7731H74.8082V38.7431H70.4048Z" fill="#030303"/>
<path d="M83.7056 38.7431L85.6843 35.7389L83.8913 32.9858H85.2576L86.4187 34.8354L87.5562 32.9858H88.911L87.1098 35.7819L89.0887 38.7431H87.6788L86.395 36.7519L85.1074 38.7431H83.7056Z" fill="#030303"/>
<path d="M98.2026 32.9858H99.3718V37.7773H101.639V32.9858H102.807V37.7773H103.289V40H102.318V38.7431H98.2026V32.9858Z" fill="#030303"/>
<path d="M112.585 38.7431V32.9858H116.878V33.9596H113.755V35.2362H116.661V36.2062H113.755V37.7731H116.989V38.7431H112.585Z" fill="#030303"/>
<path d="M126.478 38.7431V32.9858H127.647V35.2518H129.938V32.9858H131.107V38.7431H129.938V36.2256H127.647V38.7431H126.478Z" fill="#030303"/>
<path d="M142.113 38.7431V33.9596H140.395V32.9858H144.996V33.9596H143.282V38.7431H142.113Z" fill="#030303"/>
<path d="M154.244 38.7431V32.9858H156.12C156.831 32.9858 157.295 33.0146 157.511 33.0721C157.842 33.1584 158.12 33.3468 158.344 33.6375C158.567 33.9257 158.68 34.2988 158.68 34.7568C158.68 35.1105 158.615 35.4074 158.486 35.6485C158.357 35.8893 158.193 36.0791 157.992 36.218C157.795 36.3542 157.594 36.4442 157.388 36.4889C157.109 36.5436 156.705 36.5714 156.176 36.5714H155.414V38.7431H154.244ZM155.414 33.9597V35.5934H156.053C156.514 35.5934 156.822 35.5633 156.977 35.503C157.133 35.4427 157.254 35.3485 157.341 35.2203C157.43 35.0921 157.475 34.9428 157.475 34.7727C157.475 34.5631 157.413 34.3903 157.289 34.2541C157.166 34.118 157.009 34.0331 156.819 33.9988C156.68 33.9728 156.399 33.9597 155.978 33.9597H155.414Z" fill="#030303"/>
<path d="M28.4404 23.0664C28.4404 23.7725 28.2937 24.4033 28.0011 24.959C27.7147 25.5146 27.3186 25.9757 26.8124 26.3416C26.2268 26.7732 25.5809 27.0805 24.8751 27.2634C24.1763 27.4467 23.2872 27.5381 22.209 27.5381H15.7178V12.9365H21.49C22.6884 12.9365 23.5638 12.9757 24.1163 13.054C24.6755 13.1326 25.228 13.3058 25.7739 13.574C26.34 13.8549 26.7591 14.2342 27.0322 14.7113C27.312 15.1821 27.4517 15.7215 27.4517 16.3294C27.4517 17.0355 27.2618 17.6597 26.8824 18.2022C26.5031 18.7385 25.9669 19.157 25.2747 19.4577V19.536C26.2467 19.7258 27.0155 20.118 27.5816 20.7128C28.154 21.3076 28.4404 22.0923 28.4404 23.0664ZM23.5269 17.0649C23.5269 16.8231 23.4639 16.581 23.3374 16.3391C23.2175 16.0973 23.0012 15.9175 22.6884 15.7997C22.4086 15.6951 22.0592 15.6397 21.6398 15.6331C21.2269 15.62 20.6445 15.6134 19.892 15.6134H19.5325V18.7025H20.1317C20.7375 18.7025 21.2534 18.6928 21.6795 18.673C22.1055 18.6536 22.4417 18.5882 22.6884 18.477C23.0343 18.3266 23.2607 18.1336 23.3673 17.8984C23.474 17.6566 23.5269 17.3788 23.5269 17.0649ZM24.4658 23.0075C24.4658 22.5433 24.3724 22.1872 24.186 21.9388C24.0063 21.6838 23.6969 21.494 23.2573 21.37C22.958 21.2848 22.5452 21.239 22.0191 21.2324C21.4931 21.2262 20.9441 21.2227 20.3713 21.2227H19.5325V24.8609H19.8122C20.8908 24.8609 21.6631 24.8578 22.1289 24.8512C22.595 24.8447 23.0246 24.7598 23.4172 24.5963C23.8167 24.4327 24.0895 24.2169 24.2362 23.9491C24.3891 23.6744 24.4658 23.3606 24.4658 23.0075Z" fill="#030303"/>
<path d="M131.005 27.5581H127.494V17.7812L124.059 27.3926L121.574 27.4144L118.086 17.7812V27.5581H114.628V12.9565H119.308L122.735 22.8079L126.326 12.9565H131.005V27.5581Z" fill="#030303"/>
<path d="M109.424 27.5884H98.2666V12.9868H101.862V24.7934H107.144V12.9868H110.74V24.7934H112.686V30.9422H109.424V27.5884Z" fill="#030303"/>
<path d="M41.6649 15.7103H37.3064V27.4878H33.707V15.7103H29.3481V12.8862H41.6649V15.7103Z" fill="#030303"/>
<path d="M14.3758 27.5832H10.7127L9.76234 24.6337H4.66913L3.71877 27.5832H0.147949L5.2227 12.9927H9.3011L14.3758 27.5832ZM8.9043 21.9586L7.21574 16.7261L5.52717 21.9586H8.9043Z" fill="#030303"/>
<path d="M146.643 27.5441H142.98L142.029 24.5946H136.936L135.986 27.5441H132.415L137.49 12.9536H141.568L146.643 27.5441ZM141.171 21.9195L139.483 16.6871L137.794 21.9195H141.171Z" fill="#030303"/>
<path d="M160 27.6056H156.535V21.2784H151.483V27.6056H148.019V12.9385H151.483V18.516H156.535V12.9385H160V27.6056Z" fill="#030303"/>
<path d="M50.0972 12.9497C46.1376 12.9501 42.9277 16.211 42.9277 20.2334C42.9281 24.2557 46.138 27.5167 50.0972 27.5167C54.0565 27.5167 57.2664 24.2557 57.2667 20.2334C57.2667 16.211 54.0568 12.9501 50.0972 12.9497ZM50.0972 16.2768C52.2603 16.2768 54.014 18.055 54.014 20.2486C54.014 22.4422 52.2603 24.2208 50.0972 24.2208C47.9342 24.2208 46.1805 22.4422 46.1805 20.2486C46.1805 18.055 47.9342 16.2768 50.0972 16.2768Z" fill="#030303"/>
<path d="M88.0709 12.917C84.1113 12.9173 80.9014 16.1783 80.9014 20.2006C80.9017 24.223 84.1117 27.484 88.0709 27.484C92.0301 27.484 95.2401 24.223 95.2404 20.2006C95.2404 16.1783 92.0305 12.9173 88.0709 12.917ZM88.0709 16.2441C90.2339 16.2441 91.9876 18.0223 91.9876 20.2159C91.9876 22.4095 90.2339 24.1877 88.0709 24.188C85.9078 24.188 84.1541 22.4095 84.1541 20.2159C84.1541 18.0223 85.9078 16.2441 88.0709 16.2441Z" fill="#030303"/>
<path d="M56.9268 27.4251H60.3338L71.2979 17.1075C72.5809 16.0228 74.4764 15.0608 74.4879 19.017V27.456H77.5233V18.216C77.1512 10.2894 71.2672 13.4932 70.4924 14.1815L56.9268 27.4251Z" fill="#030303"/>
<path d="M42.6934 12.2734C44.4377 10.2935 47.2142 8.99822 50.7091 8.17891C54.5739 7.55881 58.7283 7.54356 59.4254 7.3513C60.4053 6.79701 65.3588 2.04817 70.3319 0.818005C73.8619 -0.031437 77.2237 -0.0529156 80.844 0.0340379C84.4643 0.120991 90.3285 0.713037 91.444 1.34077C93.3311 2.40257 94.9772 4.19152 95.9115 5.91397C96.8458 7.63675 97.8387 11.0103 97.8387 11.0103C97.8387 11.0103 95.1214 7.60003 93.8969 6.06639C92.672 4.5331 92.2288 3.88701 90.6117 3.16991C88.9946 2.4528 82.249 2.06064 79.0921 2.12473C75.7491 2.21965 70.829 3.00847 68.1417 4.38968C65.5787 5.7068 64.1848 7.60177 62.6227 8.61472C61.0606 9.62768 60.4566 9.52583 59.1188 9.52929C57.7807 9.53276 52.8202 9.69662 49.9642 10.2263C47.1083 10.756 42.6934 12.2734 42.6934 12.2734Z" fill="#030303"/>
<path d="M68.1416 8.44062C70.901 8.17941 76.6384 7.2742 79.8365 7.09024C83.0345 6.90629 85.8261 6.85537 87.7205 7.17755C89.6153 7.49972 91.137 8.44062 91.137 8.44062C91.137 8.44062 88.976 8.64502 87.1952 8.78913C85.3265 8.93324 82.5541 9.20172 79.9239 9.26824C77.294 9.33441 73.8065 9.20623 71.4268 9.13763C69.0467 9.06869 68.1416 8.44062 68.1416 8.44062Z" fill="#030303"/>
</svg>
