<svg width="238" height="70" viewBox="0 0 238 70" fill="none" xmlns="http://www.w3.org/2000/svg">
<path fill-rule="evenodd" clip-rule="evenodd" d="M18.1074 34.1898C22.3678 35.9647 25.2082 38.4503 27.7814 44.0419C30.3561 38.4503 33.1074 35.61 37.4569 33.8351C41.101 32.5282 44.7465 31.2227 48.3919 29.9172C48.4149 30.0103 48.4391 30.1033 48.4621 30.195C48.6401 31.4385 48.7278 32.9477 48.7278 34.4555C48.7278 49.8992 38.521 53.0066 27.7814 52.9176C17.0419 53.0066 6.92412 49.8992 6.92412 34.4555C6.92412 33.3024 6.92412 32.1479 7.10079 31.1715C7.15339 30.9543 7.20599 30.7358 7.25859 30.5187C10.8757 31.742 14.4916 32.9666 18.1074 34.1898ZM46.0398 23.4813C45.9589 23.3532 45.8794 23.2237 45.7998 23.0956C41.983 17.4149 35.0589 16.0838 27.7814 16.0838C20.504 16.0838 13.4032 17.504 9.67542 23.2723C9.5419 23.5042 9.40838 23.7348 9.27486 23.9668C15.6797 27.6271 22.9451 27.6946 27.7814 36.9411C32.224 27.41 39.5702 27.2765 46.0398 23.4813ZM51.2134 20.1662C51.0057 19.9289 50.7993 19.6929 50.5916 19.4555C44.911 13.3311 35.5916 12 27.7814 12C19.8822 12 10.2958 13.3311 4.70419 19.8102C4.61518 19.9289 4.52751 20.0476 4.4385 20.1662C1.6872 23.4503 0 28.1545 0 34.4555C0 53.894 15.7998 57 27.7814 57C39.8535 57 55.6519 53.894 55.6519 34.4555C55.6519 28.1545 53.9647 23.4503 51.2134 20.1662Z" fill="#030303"/>
<path fill-rule="evenodd" clip-rule="evenodd" d="M237.027 28.0113V48.9118H214.491C214.491 48.9118 207.134 48.7958 206.085 41.4388C204.333 46.8106 200.596 48.7958 196.625 48.7958H175.841V27.5434L149.334 48.9118H122.477C122.477 48.9118 117.807 48.9118 115.471 45.0586V48.9118H105.779V32.3312C105.779 32.3312 106.363 28.594 101.809 28.594H98.657V48.9118H89.316V28.594H82.4256V48.9118H72.6167V19.953H105.079C105.079 19.953 115.471 19.253 115.471 30.8125V34.0817C117.807 30.4632 122.477 30.6966 123.996 30.6966H136.257C136.257 30.6966 136.841 27.7767 132.402 27.7767H117.107V19.953H136.373C136.373 19.953 145.014 19.6037 145.014 28.0113V40.8548L171.403 19.953H197.326C197.326 19.953 207.251 19.6037 207.251 32.7978V34.1991C209.587 30.4632 214.375 30.6966 215.892 30.6966H228.153C228.153 30.6966 228.853 27.7767 224.417 27.7767H209.121V19.953H228.386C228.386 19.953 237.027 19.6037 237.027 28.0113ZM152.371 48.9118L162.762 40.3882H174.206V48.9118H152.371ZM168.367 19.953L157.976 28.594H146.532V19.953H168.367ZM217.877 37.119H227.92V40.9721H217.644C217.644 40.9721 215.542 41.0881 215.542 38.9869C215.542 37.235 217.294 37.119 217.877 37.119ZM125.98 37.119H136.139V40.9721H125.864C125.864 40.9721 123.763 41.0881 123.763 38.9869C123.763 37.235 125.397 37.119 125.98 37.119ZM193.94 40.3882H185.181V28.1273H194.057C194.057 28.1273 198.261 28.478 198.261 33.8498C198.261 39.2202 196.276 40.3882 193.94 40.3882Z" fill="#030303"/>
</svg>
