<svg width="207" height="60" viewBox="0 0 207 60" fill="none" xmlns="http://www.w3.org/2000/svg">
<path fill-rule="evenodd" clip-rule="evenodd" d="M16.443 29.3149C20.1515 30.8598 22.6238 33.0234 24.8637 37.8906C27.1048 33.0234 29.4996 30.5511 33.2856 29.0062C36.4576 27.8686 39.6308 26.7322 42.8039 25.5958C42.8239 25.6768 42.845 25.7579 42.865 25.8377C43.0199 26.9201 43.0962 28.2337 43.0962 29.5462C43.0962 42.989 34.2118 45.6938 24.8637 45.6163C15.5156 45.6938 6.70867 42.989 6.70867 29.5462C6.70867 28.5424 6.70867 27.5375 6.86246 26.6876C6.90824 26.4986 6.95403 26.3084 6.99981 26.1194C10.1483 27.1842 13.2957 28.2501 16.443 29.3149ZM40.7566 19.9938C40.6861 19.8823 40.6169 19.7696 40.5476 19.658C37.2254 14.7134 31.1983 13.5547 24.8637 13.5547C18.5291 13.5547 12.3483 14.7909 9.10352 19.8118C8.9873 20.0137 8.87108 20.2145 8.75486 20.4164C14.3299 23.6025 20.654 23.6612 24.8637 31.7097C28.7307 23.4135 35.1252 23.2973 40.7566 19.9938ZM45.2598 17.1082C45.079 16.9016 44.8994 16.6962 44.7186 16.4896C39.774 11.1587 31.662 10 24.8637 10C17.9879 10 9.64353 11.1587 4.77636 16.7983C4.69888 16.9016 4.62257 17.0049 4.54509 17.1082C2.15025 19.9668 0.681641 24.0615 0.681641 29.5462C0.681641 46.4662 14.4344 49.1698 24.8637 49.1698C35.3717 49.1698 49.1233 46.4662 49.1233 29.5462C49.1233 24.0615 47.6547 19.9668 45.2598 17.1082Z" fill="white"/>
<path fill-rule="evenodd" clip-rule="evenodd" d="M207 23.937V42.1296H187.383C187.383 42.1296 180.979 42.0286 180.066 35.6247C178.541 40.3006 175.288 42.0286 171.832 42.0286H153.74V23.5296L130.668 42.1296H107.291C107.291 42.1296 103.225 42.1296 101.192 38.7756V42.1296H92.7563V27.6971C92.7563 27.6971 93.2646 24.4441 89.3002 24.4441H86.5567V42.1296H78.4259V24.4441H72.4282V42.1296H63.8901V16.9226H92.147C92.147 16.9226 101.192 16.3134 101.192 26.3752V29.2209C103.225 26.0712 107.291 26.2743 108.613 26.2743H119.285C119.285 26.2743 119.793 23.7327 115.93 23.7327H102.616V16.9226H119.386C119.386 16.9226 126.907 16.6186 126.907 23.937V35.1164L149.878 16.9226H172.442C172.442 16.9226 181.081 16.6186 181.081 28.1033V29.323C183.115 26.0712 187.282 26.2743 188.603 26.2743H199.275C199.275 26.2743 199.885 23.7327 196.023 23.7327H182.709V16.9226H199.478C199.478 16.9226 207 16.6186 207 23.937ZM133.311 42.1296L142.357 34.7102H152.318V42.1296H133.311ZM147.235 16.9226L138.19 24.4441H128.229V16.9226H147.235ZM190.331 31.8646H199.072V35.2186H190.128C190.128 35.2186 188.298 35.3195 188.298 33.4905C188.298 31.9656 189.823 31.8646 190.331 31.8646ZM110.34 31.8646H119.183V35.2186H110.239C110.239 35.2186 108.41 35.3195 108.41 33.4905C108.41 31.9656 109.832 31.8646 110.34 31.8646ZM169.495 34.7102H161.871V24.0379H169.597C169.597 24.0379 173.256 24.3431 173.256 29.019C173.256 33.6936 171.528 34.7102 169.495 34.7102Z" fill="white"/>
</svg>
