<svg width="208" height="70" viewBox="0 0 208 70" fill="none" xmlns="http://www.w3.org/2000/svg">
<path d="M0 68.3587L25.6084 68.3552L37.8322 45.7212L12.265 45.7051L0 68.3587Z" fill="#161615"/>
<path d="M38.52 1.64062L25.0996 23.921L37.8309 45.7224L51.3202 23.8199L38.52 1.64062Z" fill="#161615"/>
<path d="M37.832 45.7216L50.0546 68.3557L75.6642 68.3591L63.398 45.7056L37.832 45.7216Z" fill="#161615"/>
<path fill-rule="evenodd" clip-rule="evenodd" d="M73.7168 12.7627H77.1907L81.2791 22.0557L85.3674 12.7627H88.8402V32.0537H85.2113V19.6796H85.1584L81.6695 27.684L81.2814 28.4799L80.8886 27.684L77.3997 19.6796H77.3469V32.0537H73.7168V12.7627Z" fill="#161615"/>
<rect x="92.7686" y="12.7666" width="3.63358" height="19.2864" fill="#161615"/>
<path fill-rule="evenodd" clip-rule="evenodd" d="M98.4897 15.8565V12.7661H110.178V15.8565H106.159V32.0526H102.525V15.8565H98.4897Z" fill="#161615"/>
<path fill-rule="evenodd" clip-rule="evenodd" d="M130.145 12.7666V26.0319C130.145 28.2702 130.971 29.2819 133.262 29.2819C135.553 29.2819 136.379 28.2702 136.379 26.0319V12.7666H139.682V26.8852C139.682 29.762 137.683 32.3723 133.262 32.3723C128.839 32.3723 126.842 29.762 126.842 26.8852V12.7666H130.145Z" fill="#161615"/>
<path fill-rule="evenodd" clip-rule="evenodd" d="M142.777 12.7666H150.707C153.221 12.9159 154.996 14.658 154.996 18.0941C154.996 19.6123 153.912 21.4773 152.125 21.6634V21.7173C154.762 22.1962 155.875 24.0877 155.875 26.4316C155.875 29.8148 153.355 32.053 150.103 32.053H142.777V12.7666Z" fill="#161615"/>
<path fill-rule="evenodd" clip-rule="evenodd" d="M147.894 20.4919C150.602 20.4919 151.363 19.6122 151.363 18.094C151.363 16.5758 150.249 15.6973 148.404 15.6973H146.411V29.1222H148.374C151.333 29.1222 152.288 28.6135 152.242 26.273C152.196 23.8877 150.998 23.4502 147.898 23.4502L147.894 20.4919Z" fill="white"/>
<path fill-rule="evenodd" clip-rule="evenodd" d="M168.368 26.0594C168.579 27.844 169.243 29.4426 171.564 29.4426C173.313 29.4426 174.579 28.2965 174.579 26.7255C174.579 22.1973 165.292 25.1269 165.292 17.6679C165.292 14.4983 168.006 12.4473 171.504 12.4473C175.514 12.4473 177.473 14.8452 177.716 18.148H174.248C174.036 16.6826 173.162 15.378 171.352 15.378C169.694 15.378 168.79 16.4426 168.79 17.8551C168.79 21.8769 178.078 19.1597 178.078 26.5119C178.078 30.0547 175.484 32.3734 171.474 32.3734C167.222 32.3734 164.901 29.6551 164.87 26.0594H168.368Z" fill="#161615"/>
<path fill-rule="evenodd" clip-rule="evenodd" d="M114.921 26.0594C115.133 27.844 115.795 29.4426 118.117 29.4426C119.866 29.4426 121.133 28.2965 121.133 26.7255C121.133 22.1973 111.846 25.1269 111.846 17.6679C111.846 14.4983 114.56 12.4473 118.058 12.4473C122.068 12.4473 124.027 14.8452 124.268 18.148H120.801C120.59 16.6826 119.716 15.378 117.906 15.378C116.248 15.378 115.344 16.4426 115.344 17.8551C115.344 21.8769 124.63 19.1597 124.63 26.5119C124.63 30.0547 122.038 32.3734 118.027 32.3734C113.775 32.3734 111.454 29.6551 111.423 26.0594H114.921Z" fill="#161615"/>
<path fill-rule="evenodd" clip-rule="evenodd" d="M180.097 12.7661H183.73V20.4915H190.8V12.7661H194.433V32.0526H190.8V23.4211H183.73V32.0526H180.097V12.7661Z" fill="#161615"/>
<rect x="197.97" y="12.7666" width="3.63358" height="19.2864" fill="#161615"/>
<rect x="158.419" y="12.7344" width="3.63358" height="19.2864" fill="#161615"/>
<path fill-rule="evenodd" clip-rule="evenodd" d="M92.1533 38.0527H95.6273L99.7156 47.3445L103.803 38.0527H107.277V57.3426H103.647V44.9696H103.595L100.106 52.9729L99.7168 53.7688L99.324 52.9729L95.8351 44.9696H95.7834V57.3426H92.1533V38.0527Z" fill="#161615"/>
<path fill-rule="evenodd" clip-rule="evenodd" d="M125.546 41.0821V37.9917H137.736V41.0821H133.458V57.2781H129.824V41.0821H125.546Z" fill="#161615"/>
<path fill-rule="evenodd" clip-rule="evenodd" d="M173.684 51.2269C173.895 53.0115 174.559 54.609 176.88 54.609C178.629 54.609 179.895 53.464 179.895 51.893C179.895 47.3648 170.608 50.2944 170.608 42.8354C170.608 39.6658 173.322 37.6147 176.82 37.6147C180.83 37.6147 182.789 40.0126 183.031 43.3155H179.563C179.352 41.8501 178.478 40.5455 176.669 40.5455C175.01 40.5455 174.106 41.6101 174.106 43.0226C174.106 47.0444 183.393 44.3272 183.393 51.6794C183.393 55.2222 180.8 57.5397 176.789 57.5397C172.537 57.5397 170.217 54.8226 170.186 51.2269H173.684Z" fill="#161615"/>
<path fill-rule="evenodd" clip-rule="evenodd" d="M117.341 37.5103C120.973 37.5103 125.032 40.2262 125.032 47.5462C125.032 55.1797 120.658 57.5523 117.341 57.5523C113.568 57.5523 109.65 54.6652 109.65 47.3453C109.65 40.712 113.539 37.5103 117.341 37.5103Z" fill="#161615"/>
<path fill-rule="evenodd" clip-rule="evenodd" d="M113.219 47.3669C113.219 52.3637 115.29 54.4205 117.286 54.4205C119.041 54.4205 121.354 52.7139 121.354 47.5036C121.354 42.508 119.208 40.6533 117.286 40.6533C115.276 40.6533 113.219 42.8399 113.219 47.3669Z" fill="white"/>
<path fill-rule="evenodd" clip-rule="evenodd" d="M145.833 37.5103C149.464 37.5103 153.523 40.2262 153.523 47.5462C153.523 55.1797 149.149 57.5523 145.833 57.5523C142.059 57.5523 138.142 54.6652 138.142 47.3453C138.142 40.712 142.03 37.5103 145.833 37.5103Z" fill="#161615"/>
<path fill-rule="evenodd" clip-rule="evenodd" d="M141.71 47.3669C141.71 52.3637 143.782 54.4205 145.778 54.4205C147.533 54.4205 149.846 52.7139 149.846 47.5036C149.846 42.508 147.698 40.6533 145.778 40.6533C143.767 40.6533 141.71 42.8399 141.71 47.3669Z" fill="white"/>
<path fill-rule="evenodd" clip-rule="evenodd" d="M159.003 57.2604H155.581V38.1278H162.391C166.9 38.075 168.362 40.4407 168.27 44.041C168.187 47.291 166.683 48.2361 164.992 48.9516L170.136 57.2604H165.957L160.272 47.1153C160.272 47.1153 164.536 47.353 164.554 44.1329C164.565 42.0784 163.495 41.0528 161.29 41.0942L159.01 41.0976L159.003 57.2604Z" fill="#161615"/>
</svg>
