<svg width="16" height="16" viewBox="0 0 16 16" fill="none" xmlns="http://www.w3.org/2000/svg">
<path fill-rule="evenodd" clip-rule="evenodd" d="M10.1147 5.15689C10.895 5.15689 11.5249 4.52487 11.5249 3.74487C11.9146 3.74487 12.2349 4.06088 12.2349 4.45087V12.9199C12.2349 13.3089 11.9146 13.6249 11.5249 13.6249H4.46533C4.07471 13.6249 3.76514 13.3089 3.76514 12.9199V4.45087C3.76514 4.06088 4.07471 3.74487 4.46533 3.74487C4.46533 4.52487 5.10498 5.15689 5.88525 5.15689H10.1147ZM4.58447 2.33389C4.88525 1.51187 5.66455 0.921875 6.58447 0.921875H9.40479C10.3345 0.921875 11.1147 1.51187 11.4048 2.33389H11.5249C12.6948 2.33389 13.645 3.28189 13.645 4.45087V12.9199C13.645 14.0889 12.6948 15.0369 11.5249 15.0369H4.46533C3.29541 15.0369 2.35498 14.0889 2.35498 12.9199V4.45087C2.35498 3.28189 3.29541 2.33389 4.46533 2.33389H4.58447ZM5.88525 3.74487H6.58447H7.29541H8.70459H9.40479H10.1147V3.03989C10.1147 2.64987 9.79541 2.33389 9.40479 2.33389H6.58447C6.19482 2.33389 5.88525 2.64987 5.88525 3.03989V3.74487ZM5.5249 9.39087C5.5249 9.00089 5.84521 8.68488 6.23486 8.68488H7.29541V7.62689C7.29541 7.23688 7.60498 6.92087 7.99463 6.92087C8.38525 6.92087 8.70459 7.23688 8.70459 7.62689V8.68488H9.76514C10.1548 8.68488 10.4653 9.00089 10.4653 9.39087C10.4653 9.78088 10.1548 10.0969 9.76514 10.0969H8.70459V11.1549C8.70459 11.5449 8.38525 11.8609 7.99463 11.8609C7.60498 11.8609 7.29541 11.5449 7.29541 11.1549V10.0969H6.23486C5.84521 10.0969 5.5249 9.78088 5.5249 9.39087Z" fill="white"/>
</svg>
