<svg width="242" height="70" viewBox="0 0 242 70" fill="none" xmlns="http://www.w3.org/2000/svg">
<path d="M25.4617 9.35547C11.5757 9.35547 0.318359 20.6138 0.318359 34.5007C0.318359 48.3867 11.5757 59.645 25.4617 59.645C39.3496 59.645 50.6059 48.3867 50.6059 34.5007C50.6059 20.6138 39.3496 9.35547 25.4617 9.35547ZM25.4617 59.0123C11.9236 59.0123 0.949135 48.0378 0.949135 34.5007C0.949135 20.9617 11.9236 9.98822 25.4617 9.98822C39.0007 9.98822 49.9752 20.9617 49.9752 34.5007C49.9752 48.0378 39.0007 59.0123 25.4617 59.0123Z" fill="#030303"/>
<path d="M25.4616 11.7148C12.8776 11.7148 2.67578 21.9147 2.67578 34.5006C2.67578 47.0846 12.8776 57.2854 25.4616 57.2854C38.0465 57.2854 48.2483 47.0846 48.2483 34.5006C48.2483 21.9147 38.0465 11.7148 25.4616 11.7148ZM25.4616 55.2699C13.9903 55.2699 4.69328 45.9709 4.69328 34.5006C4.69328 23.0294 13.9903 13.7314 25.4616 13.7314C36.9338 13.7314 46.2308 23.0294 46.2308 34.5006C46.2308 45.9709 36.9338 55.2699 25.4616 55.2699Z" fill="#030303"/>
<path d="M41.2547 44.4386C39.7034 42.9829 37.748 42.0091 35.6162 41.6701C35.3126 41.6228 35.0376 41.8564 35.0366 42.1639V42.9376C35.0366 43.1682 34.8622 43.4284 34.6306 43.4284C34.464 43.4284 34.2965 43.4323 34.1289 43.4284C33.5346 43.4185 33.4262 42.6902 33.5455 42.2595C34.8119 37.7179 35.1214 34.9612 35.1066 32.9555C35.0918 30.8227 35.0376 28.6988 34.0767 25.8859C33.1512 23.1815 32.3046 20.5312 27.833 16.4824C27.5304 16.2094 27.2229 16.0754 26.8149 16.0458C26.3753 16.0153 26.0146 16.0005 25.5681 16.0005C23.7113 16.0005 21.9195 16.2735 20.2272 16.7811C19.5925 16.9723 19.6881 17.4128 20.037 17.7134C21.7243 19.1583 24.0138 21.3276 25.5928 24.0389C24.5924 24.1355 23.8286 23.5796 23.1869 22.9646C21.0758 20.955 18.8789 19.524 17.1335 18.5433C16.8289 18.3728 16.5293 18.3018 16.2287 18.4743C14.3048 19.593 13.0088 20.6456 11.4811 22.4167C11.2219 22.7192 11.3895 22.9528 11.6457 23.0888C13.3133 23.9729 15.9291 25.6543 18.326 27.8344C17.8372 28.2454 17.0625 28.1124 15.9409 27.522C13.7835 26.3886 11.7088 25.7371 10.1259 25.3291C9.78789 25.2413 9.42322 25.3369 9.24877 25.6405C8.23559 27.4008 7.53582 29.508 7.20565 31.6457C7.14257 32.0557 7.42248 32.4174 7.83052 32.4884C11.5196 33.1349 18.0974 34.8686 19.1894 42.4457C19.284 43.109 18.6798 43.6925 17.8855 43.319C16.7767 42.7996 15.6689 42.2812 14.5601 41.7617C14.4448 41.7085 14.3127 41.6622 14.1856 41.6622H8.95901C8.21686 41.6622 7.91035 42.3708 8.39328 42.9247C9.65089 44.3726 10.8021 45.9337 11.7876 47.5895C11.8754 47.7364 11.9749 47.7926 12.1454 47.7926H14.427C14.5828 47.7926 14.7158 47.7561 14.8489 47.6772C15.5664 47.2564 16.2839 46.8365 17.0024 46.4157C17.1354 46.3368 17.2685 46.3388 17.4242 46.3388H34.6197C34.8494 46.3388 35.0366 46.4876 35.0366 46.7192V47.5659C35.0376 47.8714 35.3126 48.107 35.6162 48.0596C37.748 47.7196 39.7034 46.7459 41.2547 45.2892C41.5011 45.0605 41.5011 44.6682 41.2547 44.4386ZM28.8186 41.2778C27.5383 41.2778 26.5005 40.24 26.5005 38.9607C26.5005 37.6814 27.5383 36.6436 28.8186 36.6436C30.0969 36.6436 31.1347 37.6814 31.1347 38.9607C31.1347 40.24 30.0969 41.2778 28.8186 41.2778Z" fill="#030303"/>
<path d="M67.849 47.0866C71.5528 47.2571 77.5905 47.4306 81.0805 47.4306C96.3088 47.4306 98.1262 47.4 98.1262 39.1211C98.1262 32.5916 96.2082 32.0682 88.1392 31.8258L78.7791 31.5449C74.4859 31.403 74.414 30.9516 74.414 29.0306C74.414 27.0407 74.9373 27.0407 85.2396 27.0407C87.1931 27.0407 93.4101 27.1442 96.6971 27.2142C97.042 27.2142 97.2204 27.0407 97.2204 26.6899V22.4282C97.2204 22.0813 97.042 21.9049 96.7286 21.8723C93.4801 21.6939 88.1737 21.5205 84.3664 21.5205C69.42 21.5205 67.0132 21.8004 67.0132 29.5165C67.0132 36.119 68.4778 36.9922 78.0448 37.3086L86.6342 37.5855C90.6535 37.7245 90.7254 38.2134 90.7254 39.7154C90.7254 41.7782 90.549 41.8817 81.0479 41.8817C76.6128 41.8817 72.0387 41.7082 67.8844 41.5663C67.5346 41.5328 67.3601 41.7082 67.3601 42.0552V46.5258C67.3601 46.8757 67.5346 47.0491 67.849 47.0866ZM229.027 37.8319H217.85L222.986 27.6646H223.895L229.027 37.8319ZM196.393 34.3025V34.6524C196.393 41.1129 195.866 41.3239 187.488 41.3239H180.571V27.6301H187.488C195.866 27.6301 196.393 27.842 196.393 34.3025ZM160.132 34.3025V34.6524C160.132 41.7082 159.855 41.8127 151.612 41.8127C143.37 41.8127 143.089 41.7082 143.089 34.6524V34.3025C143.089 27.2487 143.37 27.1442 151.612 27.1442C159.855 27.1442 160.132 27.2487 160.132 34.3025ZM241.427 46.4213L229.378 22.2892C229.273 22.0123 229.061 21.9049 228.784 21.9049H218.099C217.816 21.9049 217.608 22.0123 217.504 22.2892L205.454 46.4213C205.276 46.8057 205.421 47.0491 205.835 47.0491H212.788C213.065 47.0491 213.277 46.9457 213.381 46.6648L215.198 43.1028H231.683L233.496 46.6648C233.605 46.9457 233.813 47.0491 234.094 47.0491H241.043C241.462 47.0491 241.601 46.8057 241.427 46.4213ZM187.45 21.9049H173.517C173.168 21.9049 172.989 22.0813 172.989 22.4282V46.5258C172.989 46.8757 173.168 47.0491 173.517 47.0491H187.45C202.364 47.0491 204.32 46.3139 204.32 34.5795V34.3715C204.32 22.6371 202.364 21.9049 187.45 21.9049ZM133.504 46.4213L119.602 32.835L132.661 22.5327C133.049 22.2547 132.906 21.9049 132.417 21.9049H123.896C123.652 21.9049 123.476 21.9738 123.267 22.1483L109.928 32.8035V22.4282C109.928 22.0813 109.754 21.9049 109.404 21.9049H102.909C102.558 21.9049 102.383 22.0813 102.383 22.4282V46.5258C102.383 46.8757 102.558 47.0491 102.909 47.0491H109.404C109.754 47.0491 109.928 46.8757 109.928 46.5258V40.4496L113.874 37.3401L123.442 46.7712C123.652 46.9801 123.825 47.0491 124.104 47.0491H133.255C133.71 47.0491 133.851 46.7367 133.504 46.4213ZM134.984 34.3025V34.6524C134.984 46.8372 136.981 47.5764 151.612 47.5764C166.246 47.5764 168.236 46.8372 168.236 34.614V34.3025C168.236 22.1158 166.246 21.3805 151.612 21.3805C136.981 21.3805 134.984 22.1158 134.984 34.3025ZM76.1239 16.0751L79.3034 19.7031C79.4769 19.911 79.6533 19.9839 79.9313 19.9839H86.6027C86.8836 19.9839 87.0571 19.911 87.2305 19.7031L90.41 16.0751C90.688 15.7568 90.5835 15.4443 90.1291 15.4443H85.6279C85.3441 15.4443 85.1677 15.5478 84.9942 15.7568L83.6341 17.7151H82.8969L81.5368 15.7568C81.3633 15.5478 81.1898 15.4443 80.8745 15.4443H76.4048C75.9475 15.4443 75.849 15.7568 76.1239 16.0751Z" fill="#030303"/>
</svg>
