<svg width="203" height="60" viewBox="0 0 203 60" fill="none" xmlns="http://www.w3.org/2000/svg">
<path d="M21.7368 8.55322C10.1456 8.55322 0.748535 17.9511 0.748535 29.5431C0.748535 41.1343 10.1456 50.5322 21.7368 50.5322C33.3296 50.5322 42.7258 41.1343 42.7258 29.5431C42.7258 17.9511 33.3296 8.55322 21.7368 8.55322ZM21.7368 50.004C10.436 50.004 1.27507 40.8431 1.27507 29.5431C1.27507 18.2415 10.436 9.0814 21.7368 9.0814C33.0384 9.0814 42.1993 18.2415 42.1993 29.5431C42.1993 40.8431 33.0384 50.004 21.7368 50.004Z" fill="white"/>
<path d="M21.7366 10.5229C11.2322 10.5229 2.71631 19.0372 2.71631 29.5433C2.71631 40.0477 11.2322 48.5627 21.7366 48.5627C32.2418 48.5627 40.7577 40.0477 40.7577 29.5433C40.7577 19.0372 32.2418 10.5229 21.7366 10.5229ZM21.7366 46.8803C12.1611 46.8803 4.4004 39.118 4.4004 29.5433C4.4004 19.9677 12.1611 12.2062 21.7366 12.2062C31.313 12.2062 39.0736 19.9677 39.0736 29.5433C39.0736 39.118 31.313 46.8803 21.7366 46.8803Z" fill="white"/>
<path d="M34.9199 37.8387C33.625 36.6235 31.9927 35.8107 30.2132 35.5277C29.9598 35.4882 29.7302 35.6832 29.7294 35.9398V36.5857C29.7294 36.7782 29.5838 36.9954 29.3905 36.9954C29.2514 36.9954 29.1116 36.9987 28.9717 36.9954C28.4756 36.9872 28.3851 36.3792 28.4847 36.0196C29.5418 32.2286 29.8002 29.9275 29.7878 28.2532C29.7755 26.4729 29.7302 24.6999 28.9281 22.3519C28.1556 20.0944 27.4489 17.8821 23.7162 14.5024C23.4636 14.2745 23.2069 14.1626 22.8663 14.1379C22.4994 14.1124 22.1983 14.1001 21.8256 14.1001C20.2756 14.1001 18.7799 14.328 17.3673 14.7517C16.8375 14.9113 16.9173 15.279 17.2085 15.53C18.617 16.7361 20.5282 18.5469 21.8462 20.8101C21.0111 20.8908 20.3735 20.4268 19.8379 19.9134C18.0757 18.2359 16.2419 17.0413 14.7848 16.2227C14.5306 16.0804 14.2805 16.0211 14.0296 16.1651C12.4236 17.0989 11.3418 17.9775 10.0666 19.456C9.8502 19.7085 9.99006 19.9035 10.204 20.0171C11.596 20.755 13.7795 22.1586 15.7803 23.9784C15.3722 24.3215 14.7256 24.2104 13.7893 23.7176C11.9884 22.7715 10.2566 22.2277 8.93534 21.8871C8.65315 21.8139 8.34875 21.8937 8.20313 22.1471C7.35738 23.6164 6.77325 25.3754 6.49764 27.1598C6.44499 27.5021 6.67864 27.804 7.01924 27.8633C10.0987 28.403 15.5894 29.8501 16.501 36.1751C16.58 36.7288 16.0757 37.2159 15.4126 36.9041C14.487 36.4705 13.5623 36.0377 12.6367 35.6042C12.5405 35.5598 12.4302 35.5211 12.3241 35.5211H7.96125C7.34175 35.5211 7.08588 36.1126 7.48901 36.575C8.53879 37.7835 9.49972 39.0867 10.3224 40.4689C10.3957 40.5915 10.4788 40.6384 10.6211 40.6384H12.5257C12.6556 40.6384 12.7667 40.6079 12.8778 40.5421C13.4767 40.1908 14.0757 39.8403 14.6754 39.489C14.7865 39.4232 14.8975 39.4249 15.0275 39.4249H29.3814C29.5731 39.4249 29.7294 39.5491 29.7294 39.7424V40.4491C29.7302 40.7042 29.9598 40.9008 30.2132 40.8613C31.9927 40.5775 33.625 39.7646 34.9199 38.5487C35.1256 38.3578 35.1256 38.0304 34.9199 37.8387ZM24.5389 35.2002C23.4702 35.2002 22.6039 34.3339 22.6039 33.266C22.6039 32.1981 23.4702 31.3318 24.5389 31.3318C25.606 31.3318 26.4723 32.1981 26.4723 33.266C26.4723 34.3339 25.606 35.2002 24.5389 35.2002Z" fill="white"/>
<path d="M57.119 40.0494C60.2108 40.1918 65.2507 40.3366 68.164 40.3366C80.8757 40.3366 82.3928 40.3111 82.3928 33.4003C82.3928 27.9498 80.7918 27.5129 74.0562 27.3105L66.2429 27.0761C62.6592 26.9576 62.5991 26.5808 62.5991 24.9773C62.5991 23.3163 63.036 23.3163 71.6358 23.3163C73.2664 23.3163 78.4561 23.4027 81.1999 23.4611C81.4878 23.4611 81.6367 23.3163 81.6367 23.0234V19.466C81.6367 19.1764 81.4878 19.0291 81.2262 19.002C78.5145 18.8531 74.085 18.7083 70.9069 18.7083C58.4304 18.7083 56.4214 18.9419 56.4214 25.3829C56.4214 30.8943 57.6439 31.6232 65.63 31.8873L72.8 32.1185C76.155 32.2345 76.215 32.6425 76.215 33.8964C76.215 35.6183 76.0678 35.7047 68.1368 35.7047C64.4346 35.7047 60.6164 35.5599 57.1487 35.4414C56.8566 35.4134 56.711 35.5599 56.711 35.8495V39.5813C56.711 39.8734 56.8566 40.0182 57.119 40.0494ZM191.661 32.3242H182.332L186.619 23.837H187.378L191.661 32.3242ZM164.421 29.378V29.6701C164.421 35.063 163.98 35.239 156.987 35.239H151.214V23.8083H156.987C163.98 23.8083 164.421 23.9851 164.421 29.378ZM134.152 29.378V29.6701C134.152 35.5599 133.921 35.6471 127.04 35.6471C120.159 35.6471 119.925 35.5599 119.925 29.6701V29.378C119.925 23.4899 120.159 23.4027 127.04 23.4027C133.921 23.4027 134.152 23.4899 134.152 29.378ZM202.013 39.4941L191.954 19.35C191.867 19.1188 191.69 19.0291 191.459 19.0291H182.539C182.303 19.0291 182.129 19.1188 182.043 19.35L171.984 39.4941C171.836 39.815 171.957 40.0182 172.302 40.0182H178.106C178.338 40.0182 178.514 39.9318 178.601 39.6973L180.118 36.724H193.879L195.392 39.6973C195.483 39.9318 195.657 40.0182 195.891 40.0182H201.692C202.042 40.0182 202.158 39.815 202.013 39.4941ZM156.955 19.0291H145.325C145.033 19.0291 144.884 19.1764 144.884 19.466V39.5813C144.884 39.8734 145.033 40.0182 145.325 40.0182H156.955C169.405 40.0182 171.038 39.4044 171.038 29.6092V29.4356C171.038 19.6404 169.405 19.0291 156.955 19.0291ZM111.924 39.4941L100.32 28.153L111.221 19.5532C111.545 19.3212 111.425 19.0291 111.017 19.0291H103.904C103.7 19.0291 103.554 19.0867 103.379 19.2323L92.2439 28.1267V19.466C92.2439 19.1764 92.0992 19.0291 91.8071 19.0291H86.3854C86.0925 19.0291 85.9461 19.1764 85.9461 19.466V39.5813C85.9461 39.8734 86.0925 40.0182 86.3854 40.0182H91.8071C92.0992 40.0182 92.2439 39.8734 92.2439 39.5813V34.5093L95.5381 31.9136L103.525 39.7862C103.7 39.9606 103.845 40.0182 104.078 40.0182H111.717C112.096 40.0182 112.214 39.7574 111.924 39.4941ZM113.16 29.378V29.6701C113.16 39.8413 114.827 40.4583 127.04 40.4583C139.255 40.4583 140.916 39.8413 140.916 29.638V29.378C140.916 19.2052 139.255 18.5914 127.04 18.5914C114.827 18.5914 113.16 19.2052 113.16 29.378ZM64.0265 14.1628L66.6806 17.1912C66.8254 17.3648 66.9727 17.4256 67.2047 17.4256H72.7736C73.0081 17.4256 73.1529 17.3648 73.2977 17.1912L75.9518 14.1628C76.1838 13.897 76.0966 13.6362 75.7173 13.6362H71.96C71.723 13.6362 71.5758 13.7226 71.431 13.897L70.2956 15.5318H69.6802L68.5449 13.897C68.4001 13.7226 68.2553 13.6362 67.992 13.6362H64.261C63.8793 13.6362 63.797 13.897 64.0265 14.1628Z" fill="white"/>
</svg>
