<svg width="64" height="64" viewBox="0 0 64 64" fill="none" xmlns="http://www.w3.org/2000/svg">
<path d="M31.6375 41.3924C24.2426 41.1911 18.4093 35.0334 18.6105 27.6385C18.8117 20.2436 24.9695 14.4112 32.3654 14.6115C39.6178 14.8088 45.3962 20.7461 45.3962 28.0024C45.35 35.4425 39.2828 41.4376 31.8407 41.3924L31.6375 41.3895V41.3924Z" stroke="#B2CAEC" stroke-width="3"/>
<path d="M50.7337 55.3034C50.7337 47.6601 44.5419 41.4639 36.9042 41.4639H27.0941C19.4564 41.4639 13.2656 47.6601 13.2656 55.3034V55.4122C18.3549 59.4943 24.7997 61.957 31.8284 61.9975H32.1709C39.1987 61.957 45.6435 59.4943 50.7337 55.4122V55.3034Z" stroke="#B2CAEC" stroke-width="3"/>
<path d="M31.8284 61.9979C15.2602 61.9036 1.90619 48.3956 2.0005 31.8284C2.0948 15.394 15.394 2.09384 31.8284 2.0005C48.3966 1.90619 61.9046 15.2602 61.9989 31.8284C62.0922 48.3956 48.7382 61.9036 32.17 61.9979C32.0555 61.9989 31.9429 61.9989 31.8284 61.9979Z" stroke="#B2CAEC" stroke-width="3"/>
</svg>
