<svg width="41" height="40" viewBox="0 0 41 40" fill="none" xmlns="http://www.w3.org/2000/svg">
<path d="M25.6946 39.9956H14.3717C14.3015 39.9863 14.2316 39.9714 14.1611 39.9687C13.3618 39.9392 12.5624 39.9132 11.763 39.883C10.5022 39.8354 9.24634 39.7341 8.00037 39.5275C7.16608 39.3891 6.34593 39.195 5.55354 38.8955C3.59074 38.1535 2.15913 36.8414 1.30234 34.9178C0.943459 34.1123 0.714713 33.2669 0.55063 32.4028C0.289014 31.0261 0.18205 29.6332 0.121428 28.2359C0.0873454 27.4499 0.0641744 26.6633 0.034133 25.8769C0.0314387 25.8069 0.0139257 25.7374 0.00341797 25.6676V14.3457C0.0131174 14.282 0.0287444 14.2187 0.0318428 14.1547C0.0469309 13.8428 0.0636355 13.5308 0.0710449 13.2187C0.110382 11.5597 0.185957 9.90338 0.433159 8.25958C0.57178 7.33854 0.772775 6.43245 1.09892 5.55747C1.76657 3.7659 2.91649 2.3914 4.61956 1.49811C5.60756 0.979723 6.67006 0.689816 7.76044 0.488957C8.73335 0.309651 9.71609 0.203091 10.7025 0.147724C11.7934 0.0865629 12.8862 0.035506 13.9786 0.0251329C16.4578 0.0016925 18.9371 -0.00329196 21.4162 0.00182721C23.4008 0.00600338 25.3853 0.0268842 27.3697 0.0584075C28.7617 0.0805008 30.1502 0.172511 31.5308 0.364615C32.3878 0.483837 33.2337 0.651557 34.0584 0.916677C35.0649 1.24013 35.9932 1.70867 36.802 2.39868C37.8487 3.2917 38.5557 4.41064 39.0088 5.70041C39.4078 6.83619 39.6105 8.0136 39.7416 9.20461C39.8975 10.6218 39.969 12.0452 39.9793 13.4702C39.9973 15.9686 40.0061 18.4673 40.0012 20.9658C39.9968 23.2104 39.9807 25.4551 39.9468 27.6995C39.9252 29.1179 39.8164 30.532 39.5928 31.9349C39.4575 32.7839 39.2645 33.6189 38.965 34.4265C38.3457 36.0963 37.298 37.4134 35.7499 38.3142C34.7433 38.8998 33.6448 39.2268 32.5101 39.4488C31.2566 39.694 29.9872 39.802 28.7144 39.8688C27.792 39.9172 26.8679 39.9349 25.9445 39.9679C25.861 39.9708 25.778 39.986 25.6946 39.9956ZM28.1745 12.1946C28.153 12.2609 28.1342 12.3156 28.1178 12.371C27.8208 13.3757 27.3802 14.3141 26.8095 15.1912C26.1506 16.2037 25.3599 17.0945 24.3688 17.7957C23.7745 18.2161 23.1338 18.5404 22.4177 18.6962C22.2892 18.7242 22.1592 18.7765 22.001 18.738V12.1961H17.6678C17.6547 12.2156 17.6501 12.2205 17.6478 12.2261C17.6456 12.2321 17.6453 12.2389 17.6442 12.2453C17.6433 12.2517 17.6419 12.2581 17.6415 12.2645C17.6407 12.2776 17.6404 12.2905 17.64 12.3036C17.6399 12.3101 17.6399 12.3167 17.6399 12.3231C17.6398 12.3361 17.6396 12.3491 17.6396 12.3622V23.5073C17.6396 23.5202 17.6396 23.5333 17.6395 23.5462V23.5658C17.6394 23.5788 17.6392 23.5918 17.639 23.6048C17.639 23.6113 17.6388 23.6179 17.6384 23.6244C17.6379 23.6308 17.6375 23.6373 17.6363 23.6438C17.6352 23.65 17.6334 23.6562 17.631 23.6621C17.6287 23.6681 17.6262 23.6745 17.6221 23.6795C17.6182 23.6842 17.6123 23.6874 17.6022 23.6954C17.5884 23.694 17.5697 23.6941 17.5521 23.69C17.508 23.6793 17.4641 23.6675 17.4204 23.6547C16.8164 23.477 16.2605 23.1987 15.7426 22.8437C14.771 22.1781 14.008 21.3164 13.3927 20.3198C12.4134 18.7335 11.8878 16.988 11.6001 15.161C11.4542 14.2346 11.3752 13.302 11.3563 12.3643C11.3552 12.3086 11.3445 12.2531 11.3389 12.2023C11.0363 12.1584 6.94083 12.1743 6.7983 12.2198C6.7983 12.3074 6.79574 12.3978 6.79871 12.488C6.85044 14.0513 7.0156 15.6013 7.35239 17.13C7.69631 18.692 8.20446 20.1969 8.94728 21.6174C9.9179 23.4739 11.2139 25.0553 12.921 26.2842C14.8776 27.6929 17.0838 28.4357 19.4614 28.7096C20.2309 28.7982 21.0044 28.8289 21.7791 28.825C21.8483 28.8246 21.9174 28.825 22.0065 28.825V26.8323C22.0065 26.1752 22.006 25.5182 22.0067 24.861C22.0072 24.2066 22.0038 23.5522 22.009 22.896C22.0879 22.896 22.1395 22.8912 22.19 22.8969C22.3061 22.91 22.4225 22.9236 22.5375 22.9446C23.9559 23.2035 25.1934 23.8271 26.2511 24.8038C27.3845 25.8503 28.1607 27.1274 28.6638 28.578C28.6912 28.6575 28.7213 28.736 28.7488 28.8113H33.4649C32.9715 27.0088 32.1626 25.3862 31.0082 23.9388C29.8554 22.4936 28.468 21.3276 26.7974 20.4746C28.2933 19.5311 29.4991 18.3326 30.4879 16.9135C31.4812 15.4881 32.1631 13.9312 32.4649 12.1946H28.1745Z" fill="#6C6C6C"/>
</svg>
