<svg width="40" height="40" viewBox="0 0 40 40" fill="none" xmlns="http://www.w3.org/2000/svg">
<path d="M17.1699 24.2873C19.5448 22.8495 21.872 21.4408 24.2498 20.0015C21.8704 18.5613 19.5424 17.1522 17.1695 15.7158C17.1109 18.5894 17.1106 21.4106 17.1699 24.2873Z" fill="#6C6C6C"/>
<path d="M39.977 13.4701C39.9667 12.0451 39.8951 10.6217 39.7392 9.20453C39.6081 8.01365 39.4054 6.83611 39.0063 5.70033C38.5534 4.4107 37.8463 3.29162 36.7996 2.39873C35.9907 1.70859 35.0626 1.24005 34.0561 0.916597C33.2312 0.651478 32.3855 0.483893 31.5283 0.364535C30.1478 0.172432 28.7592 0.0804213 27.3672 0.0583281C25.383 0.0268048 23.3984 0.00605867 21.4139 0.00188251C18.9346 -0.00337138 16.4553 0.00174779 13.9762 0.0251882C12.8838 0.0354265 11.7911 0.0866182 10.7 0.147779C9.71379 0.203012 8.73091 0.309572 7.758 0.488877C6.66775 0.689872 5.60512 0.979644 4.61712 1.49803C2.91419 2.39146 1.76413 3.76582 1.09648 5.55753C0.770468 6.4325 0.569339 7.33846 0.430852 8.25951C0.183515 9.9033 0.10794 11.5596 0.0686035 13.2186C0.0611941 13.5308 0.0444895 13.8428 0.0294014 14.1548C0.026303 14.2186 0.0108108 14.2821 0.000976562 14.3457V25.6675C0.011619 25.7373 0.0289973 25.8068 0.0316916 25.877C0.061733 26.6632 0.084904 27.4498 0.118987 28.236C0.179609 29.6332 0.286707 31.0261 0.548189 32.4027C0.712271 33.2668 0.941017 34.1123 1.2999 34.9177C2.15669 36.8413 3.58844 38.1536 5.55123 38.8954C6.34349 39.1949 7.16364 39.389 7.99806 39.5275C9.2439 39.7342 10.4997 39.8355 11.7605 39.883C12.5599 39.9131 13.3593 39.9391 14.1587 39.9687C14.2292 39.9713 14.2991 39.9864 14.3694 39.9957H25.6922C25.7756 39.9861 25.8587 39.9709 25.9422 39.9679C26.8654 39.9349 27.7896 39.9173 28.712 39.8688C29.9847 39.8019 31.2542 39.6939 32.5078 39.4487C33.6425 39.2267 34.741 38.8999 35.7475 38.3141C37.2956 37.4134 38.3434 36.0962 38.9626 34.4264C39.262 33.6188 39.4551 32.7838 39.5903 31.935C39.814 30.5321 39.9228 29.118 39.9444 27.6994C39.9783 25.4551 39.9943 23.2103 39.9988 20.9658C40.0036 18.4673 39.9949 15.9687 39.977 13.4701ZM31.4447 22.1702C31.4389 23.2901 31.389 24.411 31.1583 25.5135C31.039 26.0826 30.8638 26.6338 30.5221 27.1121C29.9643 27.893 29.1797 28.2536 28.2382 28.3389C25.7963 28.5598 23.3477 28.5941 20.899 28.6011C19.041 28.6065 17.1823 28.5922 15.3249 28.5448C14.1692 28.5152 13.0136 28.4294 11.8617 28.3276C11.048 28.2557 10.2828 28.0153 9.70907 27.3773C9.26034 26.8785 9.04116 26.2679 8.88866 25.6291C8.62381 24.5199 8.5706 23.3883 8.56184 22.2552C8.54999 20.7258 8.55174 19.1962 8.56103 17.6668C8.56844 16.4657 8.65062 15.273 8.95521 14.1014C9.22626 13.0583 9.78384 12.2754 10.8073 11.8615C11.2848 11.6685 11.7872 11.6223 12.2908 11.5977C13.769 11.5254 15.2473 11.4461 16.7266 11.409C17.9628 11.378 19.2004 11.4027 20.6005 11.4027C22.5086 11.4377 24.5801 11.463 26.6506 11.5207C27.3364 11.5397 28.0315 11.5837 28.7019 11.7186C29.9749 11.9747 30.7117 12.8215 31.0493 14.0518C31.2927 14.9392 31.3906 15.8475 31.4075 16.76C31.441 18.563 31.4541 20.3669 31.4447 22.1702Z" fill="#6C6C6C"/>
</svg>
